<svg width="56" height="56" viewBox="0 0 56 56" fill="none" xmlns="http://www.w3.org/2000/svg">
<circle cx="27.987" cy="28.388" r="27.0633" stroke="#65C3F2" stroke-width="1.0973"/>
<path d="M38.7487 24.9855L31.8508 23.9357L28.7672 17.3895C28.683 17.2102 28.5444 17.0651 28.3733 16.977C27.944 16.755 27.4224 16.94 27.2078 17.3895L24.1242 23.9357L17.2262 24.9855C17.0361 25.014 16.8622 25.1079 16.7291 25.2501C16.5681 25.4233 16.4794 25.6564 16.4825 25.898C16.4856 26.1397 16.5801 26.3702 16.7454 26.5389L21.7361 31.6342L20.557 38.8291C20.5294 38.9965 20.5471 39.1686 20.6081 39.326C20.6691 39.4834 20.771 39.6197 20.9023 39.7195C21.0335 39.8194 21.1888 39.8787 21.3506 39.8907C21.5124 39.9028 21.6742 39.8672 21.8176 39.7879L27.9875 36.391L34.1573 39.7879C34.3258 39.8818 34.5214 39.9131 34.7088 39.8789C35.1816 39.7936 35.4994 39.3242 35.4179 38.8291L34.2388 31.6342L39.2296 26.5389C39.3654 26.3995 39.4551 26.2174 39.4822 26.0183C39.5556 25.5204 39.2241 25.0595 38.7487 24.9855Z" fill="url(#paint0_linear_260_1952)"/>
<defs>
<linearGradient id="paint0_linear_260_1952" x1="32.3766" y1="14.6719" x2="17.0145" y2="56.3692" gradientUnits="userSpaceOnUse">
<stop offset="0.255208" stop-color="#63BCF2"/>
<stop offset="1" stop-color="#92D6FF" stop-opacity="0"/>
</linearGradient>
</defs>
</svg>
