<svg width="56" height="56" viewBox="0 0 56 56" fill="none" xmlns="http://www.w3.org/2000/svg">
<circle cx="28.2409" cy="28.388" r="27.0633" stroke="#A952EA" stroke-width="1.0973"/>
<path d="M26.0926 43.3445C25.5291 43.3445 25.0944 42.8292 25.1749 42.2475L26.6238 31.7094H20.9892C19.5726 31.7094 20.458 30.4627 20.4902 30.4129C22.5186 26.7063 25.5613 21.2211 29.586 13.9076C29.6943 13.7157 29.8638 13.5686 30.0656 13.4913C30.2673 13.4141 30.4887 13.4116 30.6921 13.4842C30.8954 13.5568 31.068 13.7 31.1805 13.8894C31.2929 14.0788 31.3382 14.3026 31.3086 14.5226L29.8597 25.0607H35.5103C36.1543 25.0607 36.5085 25.3765 36.1543 26.1577C30.8578 35.6986 27.7829 41.2668 26.8975 42.8625C26.7365 43.1617 26.4306 43.3445 26.0926 43.3445Z" fill="url(#paint0_linear_260_1954)"/>
<defs>
<linearGradient id="paint0_linear_260_1954" x1="36.1017" y1="9.18539" x2="16.899" y2="54.1746" gradientUnits="userSpaceOnUse">
<stop offset="0.34375" stop-color="#A74DE9"/>
<stop offset="1" stop-color="#A74DE9" stop-opacity="0"/>
</linearGradient>
</defs>
</svg>
