<svg width="70" height="70" viewBox="0 0 70 70" fill="none" xmlns="http://www.w3.org/2000/svg">
<circle cx="34.8607" cy="35.485" r="33.9663" stroke="#EE4143" stroke-width="1.0973"/>
<path d="M42.1206 24.7492C42.3464 24.5104 42.6178 24.3194 42.9187 24.1873C43.2197 24.0552 43.544 23.9848 43.8726 23.9803C44.2012 23.9757 44.5274 24.0371 44.8319 24.1607C45.1364 24.2844 45.413 24.4678 45.6453 24.7002C45.8777 24.9326 46.0611 25.2092 46.1848 25.5137C46.3084 25.8181 46.3698 26.1443 46.3652 26.4729C46.3607 26.8015 46.2903 27.1259 46.1582 27.4268C46.0261 27.7278 45.8351 27.9992 45.5963 28.225L38.3924 35.429C38.3829 35.4385 38.3753 35.4498 38.3702 35.4623C38.365 35.4747 38.3623 35.488 38.3623 35.5015C38.3623 35.515 38.365 35.5283 38.3702 35.5408C38.3753 35.5532 38.3829 35.5645 38.3924 35.574L45.5963 42.778C45.8277 43.0056 46.0117 43.2768 46.1378 43.5759C46.2639 43.875 46.3295 44.1961 46.3308 44.5206C46.3322 44.8452 46.2693 45.1668 46.1457 45.4669C46.0222 45.7671 45.8404 46.0397 45.6109 46.2693C45.3815 46.4988 45.1088 46.6806 44.8087 46.8043C44.5086 46.9279 44.187 46.9909 43.8625 46.9896C43.5379 46.9883 43.2168 46.9228 42.9177 46.7968C42.6186 46.6708 42.3474 46.4868 42.1198 46.2555L34.9159 39.0515C34.9064 39.0419 34.8951 39.0344 34.8826 39.0292C34.8702 39.024 34.8568 39.0214 34.8434 39.0214C34.8299 39.0214 34.8166 39.024 34.8041 39.0292C34.7917 39.0344 34.7804 39.0419 34.7708 39.0515L27.567 46.2555C27.3394 46.4869 27.0682 46.6709 26.7691 46.797C26.4701 46.923 26.149 46.9887 25.8244 46.99C25.4999 46.9914 25.1783 46.9285 24.8781 46.8049C24.578 46.6813 24.3053 46.4996 24.0758 46.2701C23.8463 46.0406 23.6645 45.768 23.5408 45.4679C23.4172 45.1678 23.3542 44.8462 23.3555 44.5216C23.3568 44.197 23.4223 43.8759 23.5483 43.5768C23.6743 43.2777 23.8583 43.0065 24.0896 42.7789L31.2935 35.5749C31.303 35.5654 31.3106 35.554 31.3157 35.5416C31.3209 35.5292 31.3236 35.5158 31.3236 35.5023C31.3236 35.4889 31.3209 35.4755 31.3157 35.4631C31.3106 35.4506 31.303 35.4393 31.2935 35.4298L24.0896 28.2258C23.6347 27.7635 23.3808 27.1401 23.3834 26.4915C23.386 25.8429 23.6447 25.2216 24.1033 24.7629C24.5619 24.3042 25.1831 24.0453 25.8317 24.0426C26.4803 24.0398 27.1037 24.2935 27.5661 24.7484L34.77 31.9524C34.7795 31.9619 34.7908 31.9695 34.8033 31.9747C34.8157 31.9798 34.8291 31.9825 34.8425 31.9825C34.856 31.9825 34.8694 31.9798 34.8818 31.9747C34.8943 31.9695 34.9056 31.9619 34.9151 31.9524L42.119 24.7484L42.1206 24.7492Z" fill="url(#paint0_linear_260_1951)"/>
<defs>
<linearGradient id="paint0_linear_260_1951" x1="23.3555" y1="46.99" x2="46.3655" y2="23.98" gradientUnits="userSpaceOnUse">
<stop stop-color="#FE3675"/>
<stop offset="1" stop-color="#FF7854"/>
</linearGradient>
</defs>
</svg>
