<svg width="70" height="70" viewBox="0 0 70 70" fill="none" xmlns="http://www.w3.org/2000/svg">
<circle cx="35.1146" cy="35.485" r="33.9663" stroke="#6FE7C1" stroke-width="1.0973"/>
<path d="M48.2525 27.3379C47.8241 26.2306 47.2064 25.2272 46.4339 24.3838C45.6608 23.5379 44.7494 22.8657 43.7491 22.4037C42.7119 21.9227 41.5994 21.6765 40.4762 21.6794C38.9005 21.6794 37.3631 22.1611 36.0271 23.0708C35.7075 23.2885 35.4038 23.5275 35.1162 23.788C34.8285 23.5275 34.5249 23.2885 34.2053 23.0708C32.8692 22.1611 31.3319 21.6794 29.7561 21.6794C28.6215 21.6794 27.522 21.922 26.4832 22.4037C25.4796 22.8675 24.5751 23.5347 23.7984 24.3838C23.0249 25.2262 22.4071 26.2299 21.9798 27.3379C21.5355 28.4903 21.3086 29.7141 21.3086 30.9735C21.3086 32.1616 21.5259 33.3996 21.9574 34.659C22.3186 35.7115 22.8364 36.8032 23.498 37.9057C24.5463 39.6503 25.9878 41.4699 27.7777 43.3144C30.7438 46.372 33.6811 48.4842 33.8057 48.5698L34.5632 49.1121C34.8988 49.3511 35.3303 49.3511 35.6659 49.1121L36.4234 48.5698C36.5481 48.4806 39.4822 46.372 42.4514 43.3144C44.2413 41.4699 45.6828 39.6503 46.7312 37.9057C47.3928 36.8032 47.9137 35.7115 48.2717 34.659C48.7032 33.3996 48.9206 32.1616 48.9206 30.9735C48.9237 29.7141 48.6968 28.4903 48.2525 27.3379Z" fill="url(#paint0_linear_260_1953)"/>
<defs>
<linearGradient id="paint0_linear_260_1953" x1="55.3632" y1="5.68657" x2="30.1253" y2="61.6487" gradientUnits="userSpaceOnUse">
<stop offset="0.428739" stop-color="#6BE2A7"/>
<stop offset="1" stop-color="#6BE2A7" stop-opacity="0"/>
</linearGradient>
</defs>
</svg>
