<svg width="30" height="30" viewBox="0 0 30 30" fill="none" xmlns="http://www.w3.org/2000/svg">
<circle cx="15" cy="15" r="14.5" stroke="url(#paint0_linear_1113_5036)"/>
<path d="M16.2138 15L22.3661 7.66641C22.4692 7.54453 22.3825 7.35938 22.2231 7.35938H20.3528C20.2427 7.35938 20.1372 7.40859 20.0645 7.49297L14.9903 13.5422L9.91611 7.49297C9.84579 7.40859 9.74032 7.35938 9.62782 7.35938H7.75751C7.59814 7.35938 7.51142 7.54453 7.61454 7.66641L13.7669 15L7.61454 22.3336C7.59144 22.3608 7.57662 22.394 7.57184 22.4293C7.56706 22.4647 7.57252 22.5006 7.58757 22.533C7.60263 22.5653 7.62664 22.5926 7.65676 22.6117C7.68689 22.6308 7.72185 22.6408 7.75751 22.6406H9.62782C9.73798 22.6406 9.84345 22.5914 9.91611 22.507L14.9903 16.4578L20.0645 22.507C20.1349 22.5914 20.2403 22.6406 20.3528 22.6406H22.2231C22.3825 22.6406 22.4692 22.4555 22.3661 22.3336L16.2138 15Z" fill="url(#paint1_linear_1113_5036)"/>
<defs>
<linearGradient id="paint0_linear_1113_5036" x1="15" y1="0" x2="15" y2="30" gradientUnits="userSpaceOnUse">
<stop stop-color="#FF7854"/>
<stop offset="1" stop-color="#FE3675"/>
</linearGradient>
<linearGradient id="paint1_linear_1113_5036" x1="14.9903" y1="7.35938" x2="14.9903" y2="22.6406" gradientUnits="userSpaceOnUse">
<stop stop-color="#FF7854"/>
<stop offset="1" stop-color="#FE3675"/>
</linearGradient>
</defs>
</svg>
