<svg width="25" height="20" viewBox="0 0 25 20" fill="none" xmlns="http://www.w3.org/2000/svg">
<path fill-rule="evenodd" clip-rule="evenodd" d="M9.27555 8.06597C12.8643 6.74992 13.4752 3.3217 13.017 0.169695C13.017 0.0559627 13.1087 -0.0252747 13.2003 0.00722028C16.6363 1.79444 20.5 5.69384 20.5 11.5429C20.5 16.0272 17.2319 19.9916 12.4825 19.9916C10.7878 20.0736 9.11569 19.5528 7.73008 18.5114C6.34446 17.47 5.32428 15.9674 4.83054 14.2406C4.3368 12.5138 4.39763 10.6613 5.00342 8.97536C5.60921 7.28945 6.72547 5.86618 8.17601 4.9302C8.26764 4.86521 8.38981 4.9302 8.38981 5.04394C8.43562 5.64509 8.58834 7.15611 9.21446 8.06597H9.27555Z" fill="url(#paint0_linear_652_497)"/>
<defs>
<linearGradient id="paint0_linear_652_497" x1="12.5" y1="0" x2="12.5" y2="20" gradientUnits="userSpaceOnUse">
<stop stop-color="#FF7854"/>
<stop offset="1" stop-color="#FE3675"/>
</linearGradient>
</defs>
</svg>
