<svg width="18" height="22" viewBox="0 0 18 22" fill="none" xmlns="http://www.w3.org/2000/svg">
<path fill-rule="evenodd" clip-rule="evenodd" d="M5.3655 8.77622C9.39761 7.34429 10.0839 3.6142 9.56919 0.184638C9.56919 0.0608905 9.67214 -0.0275002 9.77508 0.00785606C13.6356 1.95245 17.9766 6.19521 17.9766 12.5593C17.9766 17.4385 14.3048 21.752 8.96866 21.752C7.06458 21.8412 5.18589 21.2745 3.6291 20.1414C2.07232 19.0084 0.926105 17.3734 0.371372 15.4945C-0.183361 13.6157 -0.115019 11.6 0.565611 9.76569C1.24624 7.93132 2.5004 6.38273 4.13013 5.36434C4.23308 5.29362 4.37034 5.36434 4.37034 5.48808C4.42181 6.14217 4.59339 7.78624 5.29687 8.77622H5.3655Z" fill="#7E8492"/>
</svg>
