<svg width="25" height="20" viewBox="0 0 25 20" fill="none" xmlns="http://www.w3.org/2000/svg">
<path d="M22.7223 17.6084C22.7223 18.4975 23.2423 19.2679 24 19.6443V19.9556C23.2519 20.0576 22.4897 19.9832 21.7769 19.7385C21.0642 19.4937 20.4215 19.0859 19.9024 18.5488C19.3633 18.6887 18.808 18.7593 18.2503 18.7589C15.0752 18.7589 12.5006 16.5192 12.5006 13.7569C12.5006 10.9945 15.0752 8.75482 18.2503 8.75482C21.4254 8.75482 24 10.9945 24 13.7569C24 14.8386 23.6052 15.839 22.9344 16.658C22.794 16.9564 22.7216 17.2799 22.7223 17.6084ZM11.2229 0C16.7822 0 21.304 3.52894 21.4408 7.92323C20.4361 7.48797 19.349 7.2647 18.2503 7.26796C16.3427 7.26796 14.5411 7.92198 13.1765 9.10872C11.7621 10.3392 10.9827 11.9899 10.9827 13.7556C10.9827 14.6285 11.1731 15.4726 11.536 16.2529C10.8986 16.2674 10.2609 16.2356 9.62835 16.1578C7.43325 18.3062 4.8114 18.6926 2.27771 18.7489V18.2224C3.64613 17.5659 4.83312 16.3717 4.83312 15.0061C4.83292 14.8186 4.8184 14.6313 4.78968 14.4459C2.47831 12.9553 1 10.6794 1 8.12832C1 3.63898 5.57675 0 11.2217 0H11.2229Z" fill="url(#paint0_linear_652_1477)"/>
<defs>
<linearGradient id="paint0_linear_652_1477" x1="12.5" y1="0" x2="12.5" y2="20" gradientUnits="userSpaceOnUse">
<stop stop-color="#FF7854"/>
<stop offset="1" stop-color="#FE3675"/>
</linearGradient>
</defs>
</svg>
