<svg width="23" height="20" viewBox="0 0 23 20" fill="none" xmlns="http://www.w3.org/2000/svg">
<path d="M21.7223 17.6084C21.7223 18.4975 22.2423 19.2679 23 19.6443V19.9556C22.2519 20.0576 21.4897 19.9832 20.7769 19.7385C20.0642 19.4937 19.4215 19.0859 18.9024 18.5488C18.3633 18.6887 17.808 18.7593 17.2503 18.7589C14.0752 18.7589 11.5006 16.5192 11.5006 13.7569C11.5006 10.9945 14.0752 8.75482 17.2503 8.75482C20.4254 8.75482 23 10.9945 23 13.7569C23 14.8386 22.6052 15.839 21.9344 16.658C21.794 16.9564 21.7216 17.2799 21.7223 17.6084ZM10.2229 0C15.7822 0 20.304 3.52894 20.4408 7.92323C19.4361 7.48797 18.349 7.2647 17.2503 7.26796C15.3427 7.26796 13.5411 7.92198 12.1765 9.10872C10.7621 10.3392 9.98272 11.9899 9.98272 13.7556C9.98272 14.6285 10.1731 15.4726 10.536 16.2529C9.89857 16.2674 9.26095 16.2356 8.62835 16.1578C6.43325 18.3062 3.8114 18.6926 1.27771 18.7489V18.2224C2.64613 17.5659 3.83312 16.3717 3.83312 15.0061C3.83292 14.8186 3.8184 14.6313 3.78968 14.4459C1.47831 12.9553 0 10.6794 0 8.12832C0 3.63898 4.57675 0 10.2217 0H10.2229Z" fill="#7C8692"/>
</svg>
