<svg width="25" height="22" viewBox="0 0 25 22" fill="none" xmlns="http://www.w3.org/2000/svg">
<path fill-rule="evenodd" clip-rule="evenodd" d="M13.4344 14.5702C13.4344 14.2101 13.5072 13.8535 13.6487 13.5208C13.7901 13.1881 13.9974 12.8858 14.2588 12.6312C14.5201 12.3765 14.8304 12.1746 15.1719 12.0367C15.5134 11.8989 15.8793 11.828 16.249 11.828C16.6186 11.828 16.9846 11.8989 17.326 12.0367C17.6675 12.1746 17.9778 12.3765 18.2391 12.6312C18.5005 12.8858 18.7078 13.1881 18.8492 13.5208C18.9907 13.8535 19.0635 14.2101 19.0635 14.5702C19.0635 15.2975 18.7669 15.995 18.2391 16.5093C17.7113 17.0236 16.9954 17.3125 16.249 17.3125C15.5025 17.3125 14.7866 17.0236 14.2588 16.5093C13.731 15.995 13.4344 15.2975 13.4344 14.5702ZM16.249 9.99985C15.5175 9.99992 14.7962 10.1667 14.1426 10.4867C13.4891 10.8068 12.9215 11.2714 12.485 11.8433C12.0486 12.4152 11.7555 13.0787 11.6291 13.7806C11.5028 14.4826 11.5466 15.2036 11.7572 15.8861C11.9678 16.5686 12.3393 17.1937 12.842 17.7114C13.3448 18.229 13.9648 18.625 14.6525 18.8676C15.3403 19.1102 16.0768 19.1928 16.8031 19.1087C17.5295 19.0246 18.2256 18.7761 18.8358 18.3832L21.8398 21.3106C22.0158 21.4821 22.2545 21.5785 22.5034 21.5785C22.7523 21.5785 22.991 21.4821 23.167 21.3106C23.343 21.1392 23.4419 20.9066 23.4419 20.6641C23.4419 20.4216 23.343 20.189 23.167 20.0175L20.1624 17.0907C20.6298 16.4018 20.8969 15.6025 20.9353 14.7775C20.9738 13.9526 20.7821 13.133 20.3807 12.4057C19.9793 11.6784 19.3832 11.0707 18.6557 10.6471C17.9282 10.2235 17.0965 9.99979 16.249 9.99985Z" fill="url(#paint0_linear_652_1470)"/>
<rect x="1.55859" y="9.9957" width="8.42081" height="8.42081" fill="url(#paint1_linear_652_1470)"/>
<rect x="10.9795" y="0.421539" width="8.42081" height="8.42081" fill="url(#paint2_linear_652_1470)"/>
<rect x="1.55859" y="0.421539" width="8.42081" height="8.42081" fill="url(#paint3_linear_652_1470)"/>
<defs>
<linearGradient id="paint0_linear_652_1470" x1="17.5002" y1="9.99985" x2="17.5002" y2="21.5785" gradientUnits="userSpaceOnUse">
<stop stop-color="#FF7854"/>
<stop offset="1" stop-color="#FE3675"/>
</linearGradient>
<linearGradient id="paint1_linear_652_1470" x1="5.769" y1="9.9957" x2="5.769" y2="18.4165" gradientUnits="userSpaceOnUse">
<stop stop-color="#FF7854"/>
<stop offset="1" stop-color="#FE3675"/>
</linearGradient>
<linearGradient id="paint2_linear_652_1470" x1="15.1899" y1="0.421539" x2="15.1899" y2="8.84235" gradientUnits="userSpaceOnUse">
<stop stop-color="#FF7854"/>
<stop offset="1" stop-color="#FE3675"/>
</linearGradient>
<linearGradient id="paint3_linear_652_1470" x1="5.769" y1="0.421539" x2="5.769" y2="8.84235" gradientUnits="userSpaceOnUse">
<stop stop-color="#FF7854"/>
<stop offset="1" stop-color="#FE3675"/>
</linearGradient>
</defs>
</svg>
