<svg width="22" height="21" viewBox="0 0 22 21" fill="none" xmlns="http://www.w3.org/2000/svg">
<rect width="8.42081" height="8.42081" fill="#7C8692"/>
<rect y="11.5791" width="8.42081" height="8.42081" fill="#7C8692"/>
<rect x="11.5781" width="8.42081" height="8.42081" fill="#7C8692"/>
<path d="M13.0692 7.92126H13.0692C12.2619 7.92135 11.4654 8.10534 10.743 8.45913C10.0206 8.81294 9.39192 9.32706 8.90785 9.96141C8.42374 10.5958 8.0979 11.3327 7.95735 12.1135C7.8168 12.8942 7.86563 13.6962 8.09977 14.455C8.33389 15.2137 8.74653 15.9074 9.30365 16.4811C9.86072 17.0548 10.5468 17.4926 11.3065 17.7606C12.0662 18.0286 12.8793 18.1196 13.681 18.0268C14.3487 17.9494 14.9938 17.7462 15.5808 17.4293L18.3112 20.0901L18.3112 20.0902C18.5819 20.3539 18.9464 20.4999 19.3237 20.4999C19.7011 20.4999 20.0656 20.3539 20.3363 20.0902C20.6074 19.826 20.7622 19.4649 20.7622 19.0855C20.7622 18.7061 20.6074 18.345 20.3363 18.0808L20.3362 18.0808L17.6188 15.4337C18.0001 14.7559 18.2189 13.9996 18.2551 13.2222C18.2979 12.3045 18.0845 11.3932 17.6388 10.5855C17.1931 9.77797 16.5321 9.10487 15.7276 8.6364C14.9232 8.16798 14.0045 7.9212 13.0692 7.92126ZM10.7548 12.9917C10.7548 12.699 10.8139 12.409 10.9291 12.1379C11.0444 11.8668 11.2137 11.6195 11.428 11.4107C11.6424 11.2019 11.8976 11.0355 12.1793 10.9218C12.4611 10.8081 12.7635 10.7494 13.0693 10.7494C13.375 10.7494 13.6774 10.8081 13.9592 10.9218C14.241 11.0355 14.4961 11.2019 14.7105 11.4107C14.9248 11.6195 15.0941 11.8668 15.2094 12.1379C15.3246 12.409 15.3838 12.699 15.3838 12.9917C15.3838 13.5821 15.1432 14.151 14.7105 14.5726C14.2774 14.9946 13.6873 15.2339 13.0693 15.2339C12.4513 15.2339 11.8611 14.9946 11.428 14.5726C10.9954 14.151 10.7548 13.5821 10.7548 12.9917Z" fill="#7C8692" stroke="white"/>
</svg>
