<svg width="17" height="20" viewBox="0 0 17 20" fill="none" xmlns="http://www.w3.org/2000/svg">
<path fill-rule="evenodd" clip-rule="evenodd" d="M9.25119 0.292798C9.05194 0.10532 8.78174 0 8.5 0C8.21826 0 7.94806 0.10532 7.74881 0.292798C6.88819 1.10283 5.6525 1.58285 4.36687 1.83286C3.08975 2.08087 1.87319 2.07887 1.17938 2.00587C1.03089 1.9904 0.880599 2.00458 0.738326 2.04748C0.596053 2.09039 0.464992 2.16105 0.353697 2.25485C0.242403 2.34866 0.153377 2.4635 0.0924313 2.59188C0.0314856 2.72026 -1.02182e-05 2.8593 2.48673e-09 2.99991V12.0003C2.48673e-09 13.3003 0.6035 14.4494 1.3855 15.3954C2.16962 16.3435 3.18856 17.1585 4.16394 17.8145C5.3855 18.6285 6.68781 19.3295 8.05269 19.9076L8.07181 19.9156L8.07819 19.9186H8.08138C8.21358 19.9721 8.35597 19.9998 8.49989 20C8.64381 20.0002 8.78627 19.9728 8.91862 19.9196L8.5 19.0006C8.91862 19.9206 8.91969 19.9196 8.91969 19.9196L8.92181 19.9186L8.92713 19.9156L8.94837 19.9076L9.01744 19.8786C9.40146 19.7142 9.78056 19.5398 10.1543 19.3556C11.084 18.8992 11.98 18.3844 12.8361 17.8145C13.8114 17.1585 14.8304 16.3445 15.6145 15.3954C16.3965 14.4504 17 13.3003 17 12.0003V2.99991C17 2.8593 16.9685 2.72026 16.9076 2.59188C16.8466 2.4635 16.7576 2.34866 16.6463 2.25485C16.535 2.16105 16.4039 2.09039 16.2617 2.04748C16.1194 2.00458 15.9691 1.9904 15.8206 2.00587C15.1268 2.07887 13.9103 2.08087 12.6331 1.83286C11.3475 1.58285 10.1118 1.10283 9.25119 0.292798Z" fill="#7E8490"/>
</svg>
