<svg width="25" height="20" viewBox="0 0 25 20" fill="none" xmlns="http://www.w3.org/2000/svg">
<path fill-rule="evenodd" clip-rule="evenodd" d="M13.2512 0.292798C13.0519 0.10532 12.7817 0 12.5 0C12.2183 0 11.9481 0.10532 11.7488 0.292798C10.8882 1.10283 9.6525 1.58285 8.36687 1.83286C7.08975 2.08087 5.87319 2.07887 5.17938 2.00587C5.03089 1.9904 4.8806 2.00458 4.73833 2.04748C4.59605 2.09039 4.46499 2.16105 4.3537 2.25485C4.2424 2.34866 4.15338 2.4635 4.09243 2.59188C4.03149 2.72026 3.99999 2.8593 4 2.99991V12.0003C4 13.3003 4.6035 14.4494 5.3855 15.3954C6.16962 16.3435 7.18856 17.1585 8.16394 17.8145C9.3855 18.6285 10.6878 19.3295 12.0527 19.9076L12.0718 19.9156L12.0782 19.9186H12.0814C12.2136 19.9721 12.356 19.9998 12.4999 20C12.6438 20.0002 12.7863 19.9728 12.9186 19.9196L12.5 19.0006C12.9186 19.9206 12.9197 19.9196 12.9197 19.9196L12.9218 19.9186L12.9271 19.9156L12.9484 19.9076L13.0174 19.8786C13.4015 19.7142 13.7806 19.5398 14.1543 19.3556C15.084 18.8992 15.98 18.3844 16.8361 17.8145C17.8114 17.1585 18.8304 16.3445 19.6145 15.3954C20.3965 14.4504 21 13.3003 21 12.0003V2.99991C21 2.8593 20.9685 2.72026 20.9076 2.59188C20.8466 2.4635 20.7576 2.34866 20.6463 2.25485C20.535 2.16105 20.4039 2.09039 20.2617 2.04748C20.1194 2.00458 19.9691 1.9904 19.8206 2.00587C19.1268 2.07887 17.9103 2.08087 16.6331 1.83286C15.3475 1.58285 14.1118 1.10283 13.2512 0.292798Z" fill="url(#paint0_linear_657_1480)"/>
<defs>
<linearGradient id="paint0_linear_657_1480" x1="12.5" y1="0" x2="12.5" y2="20" gradientUnits="userSpaceOnUse">
<stop stop-color="#FF7854"/>
<stop offset="1" stop-color="#FE3675"/>
</linearGradient>
</defs>
</svg>
