<svg width="50" height="50" viewBox="0 0 50 50" fill="none" xmlns="http://www.w3.org/2000/svg">
<path fill-rule="evenodd" clip-rule="evenodd" d="M0 12C0 5.37258 5.37258 0 12 0H23H38H50V12V27V38C50 44.6274 44.6274 50 38 50H25H12H0V38V25V12Z" fill="url(#paint0_linear_603_353)"/>
<path d="M36.9728 17.575C36.5824 16.5658 36.0194 15.6514 35.3154 14.8828C34.6109 14.1119 33.7803 13.4993 32.8687 13.0782C31.9234 12.6399 30.9096 12.4156 29.886 12.4182C28.45 12.4182 27.0489 12.8571 25.8314 13.6863C25.5401 13.8846 25.2634 14.1024 25.0012 14.3398C24.7391 14.1024 24.4624 13.8846 24.1711 13.6863C22.9535 12.8571 21.5525 12.4182 20.1165 12.4182C19.0824 12.4182 18.0804 12.6393 17.1338 13.0782C16.2192 13.5009 15.3948 14.1089 14.687 14.8828C13.9821 15.6505 13.419 16.5652 13.0297 17.575C12.6248 18.6252 12.418 19.7404 12.418 20.8882C12.418 21.9709 12.616 23.0991 13.0093 24.2469C13.3384 25.2061 13.8103 26.201 14.4132 27.2057C15.3686 28.7956 16.6823 30.4539 18.3135 32.1349C21.0165 34.9213 23.6934 36.8462 23.807 36.9242L24.4973 37.4184C24.8032 37.6363 25.1964 37.6363 25.5022 37.4184L26.1926 36.9242C26.3062 36.8429 28.9801 34.9213 31.6861 32.1349C33.3172 30.4539 34.6309 28.7956 35.5863 27.2057C36.1893 26.201 36.664 25.2061 36.9903 24.2469C37.3835 23.0991 37.5816 21.9709 37.5816 20.8882C37.5845 19.7404 37.3777 18.6252 36.9728 17.575Z" fill="white"/>
<defs>
<linearGradient id="paint0_linear_603_353" x1="25" y1="0" x2="25" y2="50" gradientUnits="userSpaceOnUse">
<stop stop-color="#FF7854"/>
<stop offset="1" stop-color="#FE3675"/>
</linearGradient>
</defs>
</svg>
