<svg width="56" height="56" viewBox="0 0 56 56" fill="none" xmlns="http://www.w3.org/2000/svg">
<path d="M16.2283 18.8004V25.5116C16.2283 25.7713 16.3232 25.996 16.5129 26.1857C16.7027 26.3755 16.9274 26.4704 17.187 26.4704H23.8983C24.3177 26.4704 24.6124 26.2706 24.7821 25.8712C24.9519 25.4817 24.882 25.1371 24.5724 24.8375L22.5051 22.7702C23.9832 21.402 25.7259 20.7179 27.7333 20.7179C28.7719 20.7179 29.7631 20.9201 30.7069 21.3246C31.6507 21.7291 32.4671 22.2758 33.1562 22.9649C33.8453 23.654 34.3921 24.4705 34.7966 25.4142C35.201 26.358 35.4033 27.3492 35.4033 28.3879C35.4033 29.4265 35.201 30.4177 34.7966 31.3615C34.3921 32.3053 33.8453 33.1217 33.1562 33.8108C32.4671 34.4999 31.6507 35.0467 30.7069 35.4512C29.7631 35.8556 28.7719 36.0579 27.7333 36.0579C26.5448 36.0579 25.4213 35.7982 24.3627 35.2789C23.3041 34.7596 22.4102 34.0255 21.6812 33.0768C21.6113 32.9769 21.4964 32.917 21.3366 32.897C21.1868 32.897 21.062 32.9419 20.9621 33.0318L18.9098 35.0991C18.8199 35.179 18.7725 35.2814 18.7675 35.4062C18.7625 35.5311 18.7999 35.6434 18.8798 35.7433C19.9684 37.0616 21.2867 38.0827 22.8347 38.8068C24.3827 39.5308 26.0155 39.8929 27.7333 39.8929C29.2913 39.8929 30.7793 39.5883 32.1975 38.9791C33.6156 38.3699 34.839 37.5509 35.8677 36.5223C36.8963 35.4936 37.7153 34.2702 38.3245 32.852C38.9337 31.4339 39.2383 29.9458 39.2383 28.3879C39.2383 26.8299 38.9337 25.3418 38.3245 23.9237C37.7153 22.5055 36.8963 21.2821 35.8677 20.2535C34.839 19.2248 33.6156 18.4059 32.1975 17.7967C30.7793 17.1875 29.2913 16.8829 27.7333 16.8829C26.2652 16.8829 24.8446 17.16 23.4713 17.7143C22.0981 18.2686 20.8772 19.05 19.8086 20.0587L17.8612 18.1263C17.5715 17.8167 17.222 17.7467 16.8125 17.9165C16.423 18.0863 16.2283 18.3809 16.2283 18.8004Z" fill="url(#paint0_linear_260_1950)"/>
<circle cx="27.7331" cy="28.388" r="27.0633" stroke="#F1D373" stroke-width="1.0973"/>
<defs>
<linearGradient id="paint0_linear_260_1950" x1="36.3321" y1="14.6717" x2="11.0943" y2="60.7582" gradientUnits="userSpaceOnUse">
<stop stop-color="#F1D373"/>
<stop offset="0.385417" stop-color="#F4D05C" stop-opacity="0.802083"/>
<stop offset="1" stop-color="#FFC200" stop-opacity="0"/>
</linearGradient>
</defs>
</svg>
