<svg version="1.2" xmlns="http://www.w3.org/2000/svg" viewBox="0 0 44 43" width="44" height="43">
	<title>matchBtnDelete</title>
	<defs>
		<clipPath clipPathUnits="userSpaceOnUse" id="cp1">
			<path d="m26.45 15.03q0.21-0.23 0.49-0.35 0.28-0.12 0.59-0.13 0.31 0 0.6 0.11 0.28 0.12 0.5 0.34 0.22 0.22 0.33 0.5 0.12 0.29 0.11 0.59 0 0.31-0.12 0.59-0.13 0.28-0.35 0.5l-4.46 4.45q0 0.01-0.01 0.02 0 0.01 0 0.02 0 0.02 0 0.03 0.01 0.01 0.02 0.02l4.45 4.45q0.21 0.22 0.33 0.5 0.12 0.28 0.12 0.58 0 0.3-0.11 0.58-0.12 0.29-0.33 0.5-0.22 0.21-0.5 0.33-0.28 0.12-0.58 0.12-0.31-0.01-0.59-0.12-0.28-0.12-0.49-0.34l-4.45-4.45q-0.01-0.01-0.02-0.02-0.02 0-0.03 0-0.01 0-0.02 0-0.01 0.01-0.02 0.02l-4.46 4.45q-0.21 0.22-0.49 0.34-0.28 0.11-0.58 0.12-0.31 0-0.59-0.12-0.28-0.11-0.5-0.33-0.21-0.21-0.33-0.49-0.11-0.29-0.11-0.59 0-0.3 0.12-0.58 0.12-0.28 0.33-0.5l4.46-4.45q0.01-0.01 0.01-0.02 0.01-0.01 0.01-0.03 0-0.01-0.01-0.02 0-0.01-0.01-0.02l-4.46-4.45c-0.28-0.29-0.43-0.67-0.43-1.08 0-0.4 0.16-0.78 0.44-1.06 0.29-0.29 0.67-0.45 1.07-0.45 0.4 0 0.79 0.16 1.07 0.44l4.46 4.45q0 0.01 0.02 0.01 0.01 0.01 0.02 0.01 0.01 0 0.02-0.01 0.02 0 0.03-0.01l4.45-4.45z"/>
		</clipPath>
		<linearGradient id="g1" x2="1" gradientUnits="userSpaceOnUse" gradientTransform="matrix(0,14.224,-14.224,0,21.962,14.552)">
			<stop offset="0" stop-color="#ff7854"/>
			<stop offset="1" stop-color="#fe3675"/>
		</linearGradient>
		<linearGradient id="g2" x2="1" gradientUnits="userSpaceOnUse" gradientTransform="matrix(0,14.224,-14.224,0,21.962,14.552)">
			<stop offset="0" stop-color="#ff7854"/>
			<stop offset="1" stop-color="#fe3675"/>
		</linearGradient>
	</defs>
	<style>
		.s0 { fill: none;stroke: #ee4143 } 
		.s1 { fill: url(#g1);stroke: url(#g2);stroke-width: 2 } 
	</style>
	<path fill-rule="evenodd" class="s0" d="m22 42.5c-11.6 0-20.9-9.3-20.9-20.8 0-11.6 9.3-20.9 20.9-20.9 11.5 0 20.8 9.3 20.8 20.9 0 11.5-9.3 20.8-20.8 20.8z"/>
	<g id="Clip-Path" clip-path="url(#cp1)">
		<path class="s1" d="m26.4 15q0.3-0.2 0.5-0.3 0.3-0.1 0.6-0.1 0.3-0.1 0.6 0.1 0.3 0.1 0.5 0.3 0.2 0.2 0.4 0.5 0.1 0.3 0.1 0.6 0 0.3-0.2 0.6-0.1 0.3-0.3 0.5l-4.5 4.4q0 0 0 0 0 0.1 0 0.1 0 0 0 0 0 0 0 0l4.5 4.5q0.2 0.2 0.3 0.5 0.2 0.2 0.2 0.5 0 0.4-0.2 0.6-0.1 0.3-0.3 0.5-0.2 0.2-0.5 0.4-0.3 0.1-0.6 0.1-0.3 0-0.6-0.1-0.2-0.2-0.5-0.4l-4.4-4.4q0 0 0 0 0 0 0 0-0.1 0-0.1 0 0 0 0 0l-4.4 4.4q-0.3 0.2-0.5 0.4-0.3 0.1-0.6 0.1-0.3 0-0.6-0.1-0.3-0.2-0.5-0.4-0.2-0.2-0.3-0.5-0.2-0.2-0.2-0.5 0.1-0.4 0.2-0.6 0.1-0.3 0.3-0.5l4.5-4.5q0 0 0 0 0 0 0 0 0 0 0 0 0-0.1 0-0.1l-4.5-4.4c-0.3-0.3-0.4-0.7-0.4-1.1 0-0.4 0.1-0.8 0.4-1.1 0.3-0.2 0.7-0.4 1.1-0.4 0.4 0 0.8 0.1 1.1 0.4l4.4 4.5q0 0 0 0 0 0 0.1 0 0 0 0 0 0 0 0 0l4.4-4.5z"/>
	</g>
</svg>