<svg width="44" height="44" viewBox="0 0 44 44" fill="none" xmlns="http://www.w3.org/2000/svg">
<circle cx="22.125" cy="21.8279" r="21" stroke="#65C3F2"/>
<path d="M30.9626 18.6369L25.5915 17.8195L23.1905 12.7223C23.1249 12.5827 23.017 12.4697 22.8838 12.4011C22.5495 12.2283 22.1434 12.3723 21.9762 12.7223L19.5752 17.8195L14.2042 18.6369C14.0561 18.6591 13.9207 18.7322 13.817 18.8429C13.6917 18.9778 13.6227 19.1593 13.6251 19.3474C13.6274 19.5356 13.7011 19.7151 13.8297 19.8464L17.7158 23.8139L16.7977 29.4162C16.7762 29.5465 16.7899 29.6805 16.8374 29.8031C16.8849 29.9256 16.9643 30.0318 17.0665 30.1095C17.1687 30.1872 17.2896 30.2334 17.4156 30.2428C17.5416 30.2522 17.6676 30.2245 17.7792 30.1627L22.5834 27.5177L27.3875 30.1627C27.5187 30.2358 27.671 30.2602 27.8169 30.2336C28.185 30.1672 28.4325 29.8016 28.3691 29.4162L27.451 23.8139L31.337 19.8464C31.4428 19.7379 31.5126 19.5961 31.5337 19.441C31.5909 19.0534 31.3328 18.6945 30.9626 18.6369Z" fill="url(#paint0_linear_695_1024)"/>
<defs>
<linearGradient id="paint0_linear_695_1024" x1="26.001" y1="10.6062" x2="14.0393" y2="43.0737" gradientUnits="userSpaceOnUse">
<stop offset="0.255208" stop-color="#63BCF2"/>
<stop offset="1" stop-color="#92D6FF" stop-opacity="0"/>
</linearGradient>
</defs>
</svg>
