<svg version="1.2" xmlns="http://www.w3.org/2000/svg" viewBox="0 0 44 44" width="44" height="44">
	<title>matchBtnMessage</title>
	<defs>
		<clipPath clipPathUnits="userSpaceOnUse" id="cp1">
			<path d="m32.63 21.87q-0.02 2.14-0.85 4.09-0.8 1.89-2.26 3.33c-0.96 0.96-2.09 1.71-3.34 2.23q-1.94 0.81-4.05 0.81h-0.05c-1.63-0.01-3.23-0.4-4.69-1.13h-3.56c-0.29 0-0.56-0.11-0.76-0.31-0.21-0.21-0.32-0.48-0.32-0.77v-3.56c-0.73-1.45-1.12-3.06-1.12-4.68q-0.01-2.14 0.8-4.1 0.79-1.89 2.23-3.35c0.95-0.96 2.08-1.73 3.33-2.26q1.95-0.83 4.09-0.84h0.05q2.12 0 4.06 0.81c1.26 0.53 2.4 1.3 3.36 2.26q1.46 1.46 2.26 3.36 0.82 1.96 0.82 4.11zm-1.78 0q0-1.79-0.68-3.42-0.66-1.58-1.87-2.79-1.22-1.21-2.79-1.87-1.62-0.68-3.38-0.68h-0.04c-2.34 0.01-4.53 0.92-6.16 2.57-1.64 1.66-2.53 3.85-2.52 6.19 0 1.41 0.35 2.81 1.02 4.05l0.1 0.2v3.3h3.3l0.2 0.11c1.24 0.66 2.64 1.01 4.06 1.02h0.04c2.32 0 4.5-0.9 6.14-2.53 1.65-1.63 2.56-3.82 2.58-6.15zm-14.21-0.84c0.21-0.21 0.5-0.33 0.8-0.33 0.3 0 0.58 0.12 0.79 0.33 0.21 0.21 0.33 0.5 0.33 0.8 0 0.3-0.12 0.58-0.33 0.79-0.21 0.21-0.49 0.33-0.79 0.33-0.3 0-0.59-0.12-0.8-0.33-0.21-0.21-0.33-0.49-0.33-0.79 0-0.3 0.12-0.59 0.33-0.8zm4.69 0c0.21-0.21 0.5-0.33 0.8-0.33 0.29 0 0.58 0.12 0.79 0.33 0.21 0.21 0.33 0.5 0.33 0.8 0 0.3-0.12 0.58-0.33 0.79-0.21 0.21-0.5 0.33-0.79 0.33-0.3 0-0.59-0.12-0.8-0.33-0.21-0.21-0.33-0.49-0.33-0.79 0-0.3 0.12-0.59 0.33-0.8zm4.69 0c0.21-0.21 0.49-0.33 0.79-0.33 0.3 0 0.59 0.12 0.8 0.33 0.21 0.21 0.33 0.5 0.33 0.8 0 0.3-0.12 0.58-0.33 0.79-0.21 0.21-0.5 0.33-0.8 0.33-0.3 0-0.58-0.12-0.79-0.33-0.21-0.21-0.33-0.49-0.33-0.79 0-0.3 0.12-0.59 0.33-0.8z"/>
		</clipPath>
		<linearGradient id="g1" x2="1" gradientUnits="userSpaceOnUse" gradientTransform="matrix(-19.194,42.562,-39.654,-17.883,37.525,-0.835)">
			<stop offset=".429" stop-color="#6be2a7" stop-opacity="1"/>
			<stop offset="1" stop-color="#6be2a7" stop-opacity="0"/>
		</linearGradient>
	</defs>
	<style>
		.s0 { fill: none;stroke: #6fe7c1 } 
		.s1 { fill: none;stroke: url(#g1);stroke-width: 2 } 
	</style>
	<path fill-rule="evenodd" class="s0" d="m22.1 42.8c-11.6 0-21-9.4-21-21 0-11.6 9.4-21 21-21 11.6 0 21 9.4 21 21 0 11.6-9.4 21-21 21z"/>
	<g id="Clip-Path" clip-path="url(#cp1)">
		<path class="s1" d="m31.8 17.8q-0.8-1.9-2.2-3.4c-1-1-2.1-1.7-3.4-2.3q-1.9-0.8-4.1-0.8-2.2 0-4.1 0.9c-1.3 0.5-2.4 1.3-3.3 2.2q-1.5 1.5-2.3 3.4-0.8 1.9-0.8 4.1c0 1.6 0.4 3.2 1.2 4.7v3.5c0 0.3 0.1 0.6 0.3 0.8 0.2 0.2 0.4 0.3 0.7 0.3h3.6c1.4 0.7 3.1 1.1 4.7 1.1q2.1 0 4.1-0.8c1.2-0.5 2.4-1.3 3.3-2.2q1.5-1.5 2.3-3.3 0.8-2 0.8-4.1 0-2.2-0.8-4.1zm-3.5 10.2c-1.7 1.7-3.9 2.5-6.2 2.5-1.4 0-2.8-0.3-4.1-1l-0.2-0.1h-3.3v-3.3l-0.1-0.2c-0.6-1.2-1-2.6-1-4 0-2.4 0.9-4.6 2.5-6.2 1.7-1.7 3.9-2.6 6.2-2.6q1.8 0 3.4 0.7 1.6 0.6 2.8 1.9 1.2 1.2 1.9 2.8 0.7 1.6 0.6 3.4c0 2.3-0.9 4.5-2.5 6.1zm-12-6.2c0 0.3 0.1 0.6 0.3 0.8 0.3 0.2 0.5 0.4 0.8 0.4 0.3 0 0.6-0.2 0.8-0.4 0.2-0.2 0.4-0.5 0.4-0.8 0-0.3-0.2-0.6-0.4-0.8-0.2-0.2-0.5-0.3-0.8-0.3-0.3 0-0.5 0.1-0.8 0.3-0.2 0.2-0.3 0.5-0.3 0.8zm4.7 0c0 0.3 0.1 0.6 0.3 0.8 0.2 0.2 0.5 0.4 0.8 0.4 0.3 0 0.6-0.2 0.8-0.4 0.2-0.2 0.4-0.5 0.4-0.8 0-0.3-0.2-0.6-0.4-0.8-0.2-0.2-0.5-0.3-0.8-0.3-0.3 0-0.6 0.1-0.8 0.3-0.2 0.2-0.3 0.5-0.3 0.8zm4.7 0c0 0.3 0.1 0.6 0.3 0.8 0.2 0.2 0.5 0.4 0.8 0.4 0.3 0 0.6-0.2 0.8-0.4 0.2-0.2 0.3-0.5 0.3-0.8 0-0.3-0.1-0.6-0.3-0.8-0.2-0.2-0.5-0.3-0.8-0.3-0.3 0-0.6 0.1-0.8 0.3-0.2 0.2-0.3 0.5-0.3 0.8z"/>
	</g>
</svg>