<svg width="19" height="19" viewBox="0 0 19 19" fill="none" xmlns="http://www.w3.org/2000/svg">
<path d="M15.05 13.452L19.0072 17.2462L17.6998 18.5L13.7435 14.7049C12.2714 15.8366 10.4404 16.4522 8.55375 16.4496C3.96361 16.4496 0.238281 12.8769 0.238281 8.4748C0.238281 4.07271 3.96361 0.5 8.55375 0.5C13.1439 0.5 16.8692 4.07271 16.8692 8.4748C16.8719 10.2842 16.2301 12.0402 15.05 13.452ZM13.1966 12.7945C14.3691 11.638 15.024 10.0879 15.0213 8.4748C15.0213 5.04829 12.1266 2.27218 8.55375 2.27218C4.98087 2.27218 2.08616 5.04829 2.08616 8.4748C2.08616 11.9013 4.98087 14.6774 8.55375 14.6774C10.2357 14.68 11.8521 14.0519 13.058 12.9274L13.1966 12.7945Z" fill="#939393"/>
</svg>
