<svg width="406" height="617" viewBox="0 0 406 617" fill="none" xmlns="http://www.w3.org/2000/svg">
<rect width="406" height="617" rx="14" fill="url(#paint0_linear_1118_4801)"/>
<path d="M182.25 249.273C182.25 250.424 182.707 251.528 183.521 252.342C184.335 253.156 185.438 253.613 186.589 253.613C187.74 253.613 188.844 253.156 189.658 252.342C190.471 251.528 190.929 250.424 190.929 249.273C190.929 248.123 190.471 247.019 189.658 246.205C188.844 245.391 187.74 244.934 186.589 244.934C185.438 244.934 184.335 245.391 183.521 246.205C182.707 247.019 182.25 248.123 182.25 249.273V249.273ZM214.071 249.273C214.071 250.424 214.529 251.528 215.342 252.342C216.156 253.156 217.26 253.613 218.411 253.613C219.562 253.613 220.665 253.156 221.479 252.342C222.293 251.528 222.75 250.424 222.75 249.273C222.75 248.123 222.293 247.019 221.479 246.205C220.665 245.391 219.562 244.934 218.411 244.934C217.26 244.934 216.156 245.391 215.342 246.205C214.529 247.019 214.071 248.123 214.071 249.273V249.273ZM202.5 217C180.135 217 162 235.135 162 257.5C162 279.865 180.135 298 202.5 298C224.865 298 243 279.865 243 257.5C243 235.135 224.865 217 202.5 217ZM226.276 281.276C223.184 284.367 219.586 286.79 215.581 288.49C211.45 290.244 207.047 291.129 202.5 291.129C197.953 291.129 193.55 290.244 189.41 288.49C185.411 286.801 181.779 284.351 178.715 281.276C175.624 278.184 173.201 274.586 171.501 270.581C169.756 266.45 168.871 262.047 168.871 257.5C168.871 252.953 169.756 248.55 171.51 244.41C173.199 240.411 175.649 236.779 178.724 233.715C181.816 230.624 185.414 228.201 189.419 226.501C193.55 224.756 197.953 223.871 202.5 223.871C207.047 223.871 211.45 224.756 215.59 226.51C219.589 228.199 223.221 230.649 226.285 233.724C229.376 236.816 231.799 240.414 233.499 244.419C235.244 248.55 236.129 252.953 236.129 257.5C236.129 262.047 235.244 266.45 233.49 270.59C231.803 274.587 229.353 278.217 226.276 281.276V281.276ZM202.5 259.398C194.771 259.398 188.433 265.482 188.036 273.103C188.031 273.201 188.046 273.299 188.08 273.391C188.114 273.483 188.167 273.567 188.234 273.638C188.302 273.709 188.383 273.766 188.474 273.804C188.564 273.843 188.661 273.863 188.759 273.863H193.107C193.487 273.863 193.812 273.573 193.84 273.194C194.183 268.719 197.935 265.184 202.5 265.184C207.065 265.184 210.826 268.719 211.16 273.194C211.188 273.573 211.513 273.863 211.893 273.863H216.241C216.339 273.863 216.436 273.843 216.526 273.804C216.617 273.766 216.698 273.709 216.766 273.638C216.833 273.567 216.886 273.483 216.92 273.391C216.954 273.299 216.969 273.201 216.964 273.103C216.567 265.482 210.229 259.398 202.5 259.398Z" fill="white"/>
<path d="M102.583 330V313.2H104.479V320.664H114.175V313.2H116.071V330H114.175V322.44H104.479V330H102.583ZM124.201 330.264C121.897 330.264 119.569 328.968 119.569 326.4V326.352C119.569 323.76 121.729 322.344 124.873 322.344C126.481 322.344 127.561 322.56 128.689 322.872V322.44C128.689 320.208 127.321 319.056 124.993 319.056C123.529 319.056 122.377 319.416 121.225 319.968L120.673 318.456C122.041 317.808 123.361 317.424 125.185 317.424C126.937 317.424 128.281 317.88 129.193 318.792C130.033 319.632 130.465 320.856 130.465 322.416V330H128.689V328.128C127.825 329.256 126.409 330.264 124.201 330.264ZM124.561 328.8C126.865 328.8 128.713 327.408 128.713 325.44V324.24C127.777 323.976 126.601 323.712 125.065 323.712C122.737 323.712 121.441 324.72 121.441 326.28V326.328C121.441 327.888 122.905 328.8 124.561 328.8ZM147.191 330.288C143.543 330.288 140.831 327.336 140.831 323.856V323.808C140.831 320.28 143.543 317.328 147.191 317.328C149.543 317.328 150.983 318.288 152.159 319.536L150.935 320.832C149.951 319.8 148.871 318.96 147.167 318.96C144.647 318.96 142.727 321.072 142.727 323.76V323.808C142.727 326.496 144.695 328.632 147.287 328.632C148.895 328.632 150.095 327.84 151.079 326.784L152.255 327.888C151.007 329.304 149.519 330.288 147.191 330.288ZM160.383 330.288C156.999 330.288 154.191 327.672 154.191 323.832V323.784C154.191 320.208 156.687 317.328 160.143 317.328C163.815 317.328 165.927 320.256 165.927 323.88C165.927 324.144 165.927 324.264 165.903 324.48H156.063C156.327 327.168 158.223 328.68 160.431 328.68C162.159 328.68 163.311 327.984 164.343 326.928L165.495 327.96C164.247 329.376 162.759 330.288 160.383 330.288ZM156.063 323.112H164.055C163.863 320.88 162.591 318.888 160.095 318.888C157.911 318.888 156.327 320.712 156.063 323.112ZM169.162 330V317.592H178.186V319.272H171.01V330H169.162ZM185.771 330.288C182.051 330.288 179.339 327.36 179.339 323.856V323.808C179.339 320.28 182.051 317.328 185.819 317.328C189.563 317.328 192.275 320.256 192.275 323.76V323.808C192.275 327.336 189.515 330.288 185.771 330.288ZM185.819 328.632C188.507 328.632 190.379 326.448 190.379 323.856V323.808C190.379 321.144 188.387 318.96 185.771 318.96C183.083 318.96 181.235 321.144 181.235 323.76V323.808C181.235 326.472 183.203 328.632 185.819 328.632ZM201.64 317.496L206.488 328.32H207.904V333.288H206.224V330H195.136V333.288H193.456V328.32H194.872L199.72 317.496H201.64ZM200.68 319.344L196.768 328.368H204.52L200.68 319.344ZM210.599 330V317.592H212.447V322.896H219.863V317.592H221.687V330H219.863V324.576H212.447V330H210.599ZM227.178 330H224.97L228.594 325.224C226.602 324.768 225.426 323.448 225.426 321.528V321.504C225.426 319.128 227.322 317.592 230.274 317.592H236.274V330H234.45V325.392H230.61L227.178 330ZM234.45 319.128H230.298C228.45 319.128 227.274 320.088 227.274 321.504V321.528C227.274 322.968 228.378 323.928 230.298 323.904H234.45V319.128ZM247.63 330V317.592H253.894C256.486 317.592 258.094 318.768 258.094 320.784V320.808C258.094 322.32 257.206 323.184 255.862 323.64C257.494 324.096 258.574 324.936 258.574 326.64V326.664C258.574 328.8 256.774 330.024 253.894 330H247.63ZM249.454 323.016H253.51C255.31 323.016 256.222 322.2 256.222 320.952V320.928C256.222 319.8 255.334 319.056 253.678 319.08H249.454V323.016ZM249.454 324.456V328.512H253.846C255.694 328.512 256.726 327.744 256.726 326.568V326.544C256.726 325.272 255.67 324.432 253.654 324.456H249.454ZM267.543 330.288C263.895 330.288 261.183 327.336 261.183 323.856V323.808C261.183 320.28 263.895 317.328 267.543 317.328C269.895 317.328 271.335 318.288 272.511 319.536L271.287 320.832C270.303 319.8 269.223 318.96 267.519 318.96C264.999 318.96 263.079 321.072 263.079 323.76V323.808C263.079 326.496 265.047 328.632 267.639 328.632C269.247 328.632 270.447 327.84 271.431 326.784L272.607 327.888C271.359 329.304 269.871 330.288 267.543 330.288ZM280.734 330.288C277.35 330.288 274.542 327.672 274.542 323.832V323.784C274.542 320.208 277.038 317.328 280.494 317.328C284.166 317.328 286.278 320.256 286.278 323.88C286.278 324.144 286.278 324.264 286.254 324.48H276.414C276.678 327.168 278.574 328.68 280.782 328.68C282.51 328.68 283.662 327.984 284.694 326.928L285.846 327.96C284.598 329.376 283.11 330.288 280.734 330.288ZM276.414 323.112H284.406C284.214 320.88 282.942 318.888 280.446 318.888C278.262 318.888 276.678 320.712 276.414 323.112ZM289.039 330V327.48H291.247V330H289.039ZM294.898 330V327.48H297.106V330H294.898ZM300.758 330V327.48H302.966V330H300.758Z" fill="white"/>
<path d="M122.859 364V350H124.439V356.22H132.519V350H134.099V364H132.519V357.7H124.439V364H122.859ZM142.514 364.24C139.414 364.24 137.154 361.8 137.154 358.88V358.84C137.154 355.9 139.414 353.44 142.554 353.44C145.674 353.44 147.934 355.88 147.934 358.8V358.84C147.934 361.78 145.634 364.24 142.514 364.24ZM142.554 362.86C144.794 362.86 146.354 361.04 146.354 358.88V358.84C146.354 356.62 144.694 354.8 142.514 354.8C140.274 354.8 138.734 356.62 138.734 358.8V358.84C138.734 361.06 140.374 362.86 142.554 362.86ZM156.72 364V353.66H158.26V358.08H164.44V353.66H165.96V364H164.44V359.48H158.26V364H156.72ZM173.935 364.24C171.115 364.24 168.775 362.06 168.775 358.86V358.82C168.775 355.84 170.855 353.44 173.735 353.44C176.795 353.44 178.555 355.88 178.555 358.9C178.555 359.12 178.555 359.22 178.535 359.4H170.335C170.555 361.64 172.135 362.9 173.975 362.9C175.415 362.9 176.375 362.32 177.235 361.44L178.195 362.3C177.155 363.48 175.915 364.24 173.935 364.24ZM170.335 358.26H176.995C176.835 356.4 175.775 354.74 173.695 354.74C171.875 354.74 170.555 356.26 170.335 358.26ZM186.327 362.84L187.127 361.7C188.147 362.42 189.467 362.9 190.927 362.9C192.827 362.9 193.947 362.2 193.947 361.1V361.08C193.947 359.98 192.847 359.4 191.067 359.4H188.747V358.16H191.047C192.727 358.16 193.667 357.48 193.667 356.44V356.42C193.667 355.4 192.707 354.74 191.007 354.74C189.727 354.74 188.487 355.16 187.267 356.02L186.467 354.94C187.747 354 189.207 353.44 191.047 353.44C193.687 353.44 195.227 354.62 195.227 356.3V356.32C195.227 357.7 194.227 358.4 193.147 358.72C194.427 358.98 195.507 359.8 195.507 361.18V361.2C195.507 362.86 193.887 364.24 190.927 364.24C189.067 364.24 187.507 363.7 186.327 362.84ZM201.421 364.22C199.501 364.22 197.561 363.14 197.561 361V360.96C197.561 358.8 199.361 357.62 201.981 357.62C203.321 357.62 204.221 357.8 205.161 358.06V357.7C205.161 355.84 204.021 354.88 202.081 354.88C200.861 354.88 199.901 355.18 198.941 355.64L198.481 354.38C199.621 353.84 200.721 353.52 202.241 353.52C203.701 353.52 204.821 353.9 205.581 354.66C206.281 355.36 206.641 356.38 206.641 357.68V364H205.161V362.44C204.441 363.38 203.261 364.22 201.421 364.22ZM201.721 363C203.641 363 205.181 361.84 205.181 360.2V359.2C204.401 358.98 203.421 358.76 202.141 358.76C200.201 358.76 199.121 359.6 199.121 360.9V360.94C199.121 362.24 200.341 363 201.721 363ZM214.763 364.24C213.163 364.24 211.983 363.7 211.123 362.84C210.063 361.78 209.483 360.16 209.483 357.98V357.96C209.483 352.54 211.263 350.42 215.103 349.78L218.543 349.2L218.823 350.62L215.323 351.2C212.443 351.68 211.303 352.98 210.983 356.1C211.843 354.82 213.303 354.02 215.143 354.02C218.163 354.02 220.043 356.16 220.043 358.94V358.96C220.043 361.84 217.923 364.24 214.763 364.24ZM214.783 362.88C216.963 362.88 218.463 361.18 218.463 359V358.98C218.463 356.8 217.063 355.28 214.923 355.28C212.643 355.28 211.043 356.8 211.043 358.94V358.96C211.043 361.3 212.703 362.88 214.783 362.88ZM224.393 353.66V357.22H227.553C230.093 357.22 231.613 358.5 231.613 360.58V360.62C231.613 362.64 230.133 364 227.493 364H222.853V353.66H224.393ZM224.393 358.52V362.68H227.473C229.233 362.68 230.053 361.9 230.053 360.6V360.58C230.053 359.36 229.233 358.5 227.493 358.52H224.393ZM233.513 364V353.66H235.053V364H233.513ZM238.497 364V353.66H243.717C245.877 353.66 247.217 354.64 247.217 356.32V356.34C247.217 357.6 246.477 358.32 245.357 358.7C246.717 359.08 247.617 359.78 247.617 361.2V361.22C247.617 363 246.117 364.02 243.717 364H238.497ZM240.017 358.18H243.397C244.897 358.18 245.657 357.5 245.657 356.46V356.44C245.657 355.5 244.917 354.88 243.537 354.9H240.017V358.18ZM240.017 359.38V362.76H243.677C245.217 362.76 246.077 362.12 246.077 361.14V361.12C246.077 360.06 245.197 359.36 243.517 359.38H240.017ZM253.511 364.22C251.591 364.22 249.651 363.14 249.651 361V360.96C249.651 358.8 251.451 357.62 254.071 357.62C255.411 357.62 256.311 357.8 257.251 358.06V357.7C257.251 355.84 256.111 354.88 254.171 354.88C252.951 354.88 251.991 355.18 251.031 355.64L250.571 354.38C251.711 353.84 252.811 353.52 254.331 353.52C255.791 353.52 256.911 353.9 257.671 354.66C258.371 355.36 258.731 356.38 258.731 357.68V364H257.251V362.44C256.531 363.38 255.351 364.22 253.511 364.22ZM253.811 363C255.731 363 257.271 361.84 257.271 360.2V359.2C256.491 358.98 255.511 358.76 254.231 358.76C252.291 358.76 251.211 359.6 251.211 360.9V360.94C251.211 362.24 252.431 363 253.811 363ZM262.013 364V353.66H263.553V361.68L269.833 353.66H271.313V364H269.793V355.96L263.453 364H262.013ZM266.653 352.14C264.973 352.14 263.833 351.24 263.693 349.64H264.813C265.053 350.38 265.633 350.9 266.653 350.9C267.673 350.9 268.253 350.38 268.493 349.64H269.613C269.473 351.24 268.333 352.14 266.653 352.14ZM274.667 355.76V353.66H276.507V355.76H274.667ZM274.667 364V361.9H276.507V364H274.667ZM72.8234 388.24C68.7834 388.24 65.8034 385.06 65.8034 381.04V381C65.8034 377.04 68.7834 373.76 72.8834 373.76C75.4234 373.76 76.9634 374.64 78.3434 375.98L77.2634 377.14C76.0634 376.02 74.7834 375.22 72.8634 375.22C69.7634 375.22 67.4434 377.74 67.4434 380.96V381C67.4434 384.24 69.7634 386.78 72.8634 386.78C74.7834 386.78 76.0434 386.04 77.3834 384.76L78.4234 385.78C76.9834 387.26 75.3434 388.24 72.8234 388.24ZM85.2318 386.28L88.5518 377.66H90.1918L85.8518 388.34C84.9718 390.48 83.9518 391.26 82.4118 391.26C81.5518 391.26 80.9118 391.08 80.2118 390.74L80.7318 389.52C81.2318 389.78 81.6918 389.9 82.3518 389.9C83.2918 389.9 83.8518 389.42 84.4718 387.96L79.7718 377.66H81.4718L85.2318 386.28ZM97.1545 377.58L101.194 386.6H102.374V390.74H100.974V388H91.7345V390.74H90.3345V386.6H91.5145L95.5545 377.58H97.1545ZM96.3545 379.12L93.0945 386.64H99.5545L96.3545 379.12ZM104.62 388V377.66H106.16V381.22H109.32C111.86 381.22 113.38 382.5 113.38 384.58V384.62C113.38 386.64 111.9 388 109.26 388H104.62ZM106.16 386.68H109.24C111 386.68 111.82 385.9 111.82 384.6V384.58C111.82 383.36 111 382.5 109.26 382.52H106.16V386.68ZM120.749 388.24C119.149 388.24 117.969 387.7 117.109 386.84C116.049 385.78 115.469 384.16 115.469 381.98V381.96C115.469 376.54 117.249 374.42 121.089 373.78L124.529 373.2L124.809 374.62L121.309 375.2C118.429 375.68 117.289 376.98 116.969 380.1C117.829 378.82 119.289 378.02 121.129 378.02C124.149 378.02 126.029 380.16 126.029 382.94V382.96C126.029 385.84 123.909 388.24 120.749 388.24ZM120.769 386.88C122.949 386.88 124.449 385.18 124.449 383V382.98C124.449 380.8 123.049 379.28 120.909 379.28C118.629 379.28 117.029 380.8 117.029 382.94V382.96C117.029 385.3 118.689 386.88 120.769 386.88ZM131.919 388.22C129.999 388.22 128.059 387.14 128.059 385V384.96C128.059 382.8 129.859 381.62 132.479 381.62C133.819 381.62 134.719 381.8 135.659 382.06V381.7C135.659 379.84 134.519 378.88 132.579 378.88C131.359 378.88 130.399 379.18 129.439 379.64L128.979 378.38C130.119 377.84 131.219 377.52 132.739 377.52C134.199 377.52 135.319 377.9 136.079 378.66C136.779 379.36 137.139 380.38 137.139 381.68V388H135.659V386.44C134.939 387.38 133.759 388.22 131.919 388.22ZM132.219 387C134.139 387 135.679 385.84 135.679 384.2V383.2C134.899 382.98 133.919 382.76 132.639 382.76C130.699 382.76 129.619 383.6 129.619 384.9V384.94C129.619 386.24 130.839 387 132.219 387ZM151.497 377.58L156.197 388H154.477L150.777 379.48L147.057 388H145.397L150.077 377.58H151.497ZM160.164 383.48V388H158.624V377.66H160.164V382.08H162.684C163.004 379.5 165.124 377.44 167.944 377.44C171.004 377.44 173.184 379.88 173.184 382.8V382.84C173.184 385.78 171.004 388.24 167.904 388.24C165.044 388.24 162.944 386.14 162.684 383.48H160.164ZM167.944 386.86C170.144 386.86 171.604 385.04 171.604 382.88V382.84C171.604 380.62 170.044 378.8 167.904 378.8C165.664 378.8 164.224 380.62 164.224 382.8V382.84C164.224 385.06 165.784 386.86 167.944 386.86ZM180.808 388.24C179.208 388.24 178.028 387.7 177.168 386.84C176.108 385.78 175.528 384.16 175.528 381.98V381.96C175.528 376.54 177.308 374.42 181.148 373.78L184.588 373.2L184.868 374.62L181.368 375.2C178.488 375.68 177.348 376.98 177.028 380.1C177.888 378.82 179.348 378.02 181.188 378.02C184.208 378.02 186.088 380.16 186.088 382.94V382.96C186.088 385.84 183.968 388.24 180.808 388.24ZM180.828 386.88C183.008 386.88 184.508 385.18 184.508 383V382.98C184.508 380.8 183.108 379.28 180.968 379.28C178.688 379.28 177.088 380.8 177.088 382.94V382.96C177.088 385.3 178.748 386.88 180.828 386.88ZM188.898 388V377.66H190.438V385.68L196.718 377.66H198.198V388H196.678V379.96L190.338 388H188.898ZM204.652 388V379.04H200.512V377.66H210.352V379.04H206.192V388H204.652ZM221.624 388V379.04H217.484V377.66H227.324V379.04H223.164V388H221.624ZM233.476 388.24C230.656 388.24 228.316 386.06 228.316 382.86V382.82C228.316 379.84 230.396 377.44 233.276 377.44C236.336 377.44 238.096 379.88 238.096 382.9C238.096 383.12 238.096 383.22 238.076 383.4H229.876C230.096 385.64 231.676 386.9 233.516 386.9C234.956 386.9 235.916 386.32 236.776 385.44L237.736 386.3C236.696 387.48 235.456 388.24 233.476 388.24ZM229.876 382.26H236.536C236.376 380.4 235.316 378.74 233.236 378.74C231.416 378.74 230.096 380.26 229.876 382.26ZM240.792 391.2V377.66H242.332V379.74C243.192 378.52 244.372 377.44 246.292 377.44C248.772 377.44 251.232 379.4 251.232 382.8V382.84C251.232 386.2 248.792 388.22 246.292 388.22C244.372 388.22 243.132 387.2 242.332 386.02V391.2H240.792ZM246.012 386.84C248.012 386.84 249.652 385.36 249.652 382.86V382.82C249.652 380.36 247.992 378.82 246.012 378.82C244.092 378.82 242.272 380.46 242.272 382.8V382.84C242.272 385.24 244.092 386.84 246.012 386.84ZM254.074 388V377.66H263.294V388H261.754V379.06H255.614V388H254.074ZM271.25 388.24C268.43 388.24 266.09 386.06 266.09 382.86V382.82C266.09 379.84 268.17 377.44 271.05 377.44C274.11 377.44 275.87 379.88 275.87 382.9C275.87 383.12 275.87 383.22 275.85 383.4H267.65C267.87 385.64 269.45 386.9 271.29 386.9C272.73 386.9 273.69 386.32 274.55 385.44L275.51 386.3C274.47 387.48 273.23 388.24 271.25 388.24ZM267.65 382.26H274.31C274.15 380.4 273.09 378.74 271.01 378.74C269.19 378.74 267.87 380.26 267.65 382.26ZM283.333 377.58L288.033 388H286.313L282.613 379.48L278.893 388H277.233L281.913 377.58H283.333ZM290.46 388V377.66H292V385.68L298.28 377.66H299.76V388H298.24V379.96L291.9 388H290.46ZM303.214 388V377.66H308.434C310.594 377.66 311.934 378.64 311.934 380.32V380.34C311.934 381.6 311.194 382.32 310.074 382.7C311.434 383.08 312.334 383.78 312.334 385.2V385.22C312.334 387 310.834 388.02 308.434 388H303.214ZM304.734 382.18H308.114C309.614 382.18 310.374 381.5 310.374 380.46V380.44C310.374 379.5 309.634 378.88 308.254 378.9H304.734V382.18ZM304.734 383.38V386.76H308.394C309.934 386.76 310.794 386.12 310.794 385.14V385.12C310.794 384.06 309.914 383.36 308.234 383.38H304.734ZM316.688 377.66V381.22H319.848C322.388 381.22 323.908 382.5 323.908 384.58V384.62C323.908 386.64 322.428 388 319.788 388H315.148V377.66H316.688ZM316.688 382.52V386.68H319.768C321.528 386.68 322.348 385.9 322.348 384.6V384.58C322.348 383.36 321.528 382.5 319.788 382.52H316.688ZM325.808 388V377.66H327.348V388H325.808ZM331.772 377.66L334.812 381.7L337.892 377.66H339.612L335.692 382.72L339.772 388H337.992L334.792 383.74L331.572 388H329.852L333.892 382.74L330.012 377.66H331.772Z" fill="white"/>
<defs>
<linearGradient id="paint0_linear_1118_4801" x1="203" y1="0" x2="203" y2="617" gradientUnits="userSpaceOnUse">
<stop stop-color="#FF7854"/>
<stop offset="1" stop-color="#FE3675"/>
</linearGradient>
</defs>
</svg>
