<svg width="1638" height="65" viewBox="0 0 1638 65" fill="none" xmlns="http://www.w3.org/2000/svg">
<path d="M38.4339 8.76517C37.2236 7.57498 35.8278 6.63163 34.3247 5.98792C32.8193 5.34127 31.236 5.0024 29.6608 4.98972C28.0262 4.9741 26.4319 5.30866 24.9704 5.97399C22.9176 6.90211 21.1986 8.43511 19.994 10.4072C19.7058 10.879 19.451 11.3693 19.2297 11.878C18.7015 11.7082 18.1651 11.5756 17.6206 11.4803C15.3442 11.082 13.0577 11.3601 11.005 12.2882C9.52682 12.9566 8.23737 13.9202 7.16783 15.1595C6.13358 16.3549 5.3482 17.7568 4.83654 19.3205C4.32509 20.8736 4.11132 22.545 4.20735 24.2402C4.30735 26.0031 4.73253 27.731 5.47434 29.3717C6.17413 30.9195 7.18648 32.4043 8.49042 33.7908C9.58086 34.9492 10.8984 36.0665 12.4097 37.113C14.8031 38.7683 17.7527 40.2897 21.1709 41.6384C26.8359 43.8746 31.9065 44.896 32.1193 44.9341L33.4256 45.1944C34.0036 45.3082 34.5657 45.054 34.8621 44.5449L35.5295 43.3923C35.6393 43.2027 38.2197 38.7275 40.287 32.9954C41.5322 29.5381 42.3384 26.3187 42.6765 23.4283C42.889 21.6025 42.9247 19.8733 42.7711 18.2914C42.5914 16.3965 42.1453 14.6557 41.4455 13.1079C40.7079 11.4653 39.6914 10.0048 38.4339 8.76517Z" fill="url(#paint0_linear_1109_4641)"/>
<path d="M190.892 33.4301C190.599 31.7581 190.012 30.179 189.163 28.7814C188.314 27.3801 187.223 26.1838 185.949 25.2577C184.628 24.2947 183.136 23.64 181.56 23.3316C179.35 22.8933 177.06 23.1412 174.934 24.0454C174.425 24.2617 173.933 24.5125 173.457 24.7977C173.126 24.3525 172.766 23.9328 172.379 23.5387C170.758 21.8912 168.736 20.7881 166.526 20.3498C164.935 20.0342 163.326 20.0686 161.735 20.4551C160.199 20.8264 158.745 21.5104 157.419 22.4852C156.1 23.4515 154.954 24.6871 154.047 26.1222C153.103 27.6147 152.445 29.2677 152.094 31.0339C151.764 32.7001 151.724 34.4967 151.979 36.383C152.193 37.9594 152.615 39.6345 153.237 41.3646C154.222 44.1029 155.737 47.0556 157.734 50.1402C161.043 55.2532 164.575 59.0322 164.726 59.187L165.637 60.1582C166.041 60.5868 166.647 60.7068 167.184 60.4649L168.397 59.9151C168.596 59.8247 173.298 57.6838 178.312 54.2218C181.335 52.1329 183.863 49.9821 185.819 47.8271C187.053 46.465 188.087 45.0789 188.882 43.7025C189.838 42.0563 190.487 40.3805 190.817 38.7144C191.172 36.9491 191.194 35.1698 190.892 33.4301Z" fill="url(#paint1_linear_1109_4641)"/>
<path d="M725.549 21.6896C725.203 20.0277 724.566 18.4683 723.673 17.0984C722.78 15.7249 721.651 14.5641 720.348 13.6791C718.997 12.7587 717.485 12.152 715.9 11.894C713.678 11.5265 711.397 11.8472 709.3 12.8189C708.798 13.0513 708.314 13.3177 707.848 13.618C707.503 13.1835 707.13 12.7755 706.73 12.3939C705.058 10.799 703.002 9.76097 700.779 9.39341C699.178 9.12874 697.571 9.21448 695.993 9.65156C694.47 10.0717 693.038 10.8018 691.744 11.8183C690.457 12.8262 689.351 14.0978 688.49 15.5611C687.595 17.0829 686.989 18.7562 686.695 20.5327C686.418 22.2085 686.436 24.0055 686.751 25.8826C687.015 27.4515 687.49 29.1122 688.166 30.8216C689.238 33.527 690.847 36.4299 692.942 39.4492C696.412 44.454 700.063 48.1184 700.219 48.2683L701.161 49.2099C701.578 49.6254 702.187 49.7261 702.716 49.4672L703.911 48.8789C704.108 48.7822 708.738 46.4924 713.64 42.8721C716.595 40.6878 719.052 38.4575 720.938 36.2411C722.128 34.8404 723.118 33.4219 723.868 32.0208C724.771 30.345 725.366 28.6494 725.643 26.9736C725.942 25.1978 725.907 23.4187 725.549 21.6896Z" fill="url(#paint2_linear_1109_4641)"/>
<path d="M861.434 16.7652C860.224 15.575 858.828 14.6316 857.325 13.9879C855.819 13.3413 854.236 13.0024 852.661 12.9897C851.026 12.9741 849.432 13.3087 847.97 13.974C845.918 14.9021 844.199 16.4351 842.994 18.4072C842.706 18.879 842.451 19.3693 842.23 19.878C841.702 19.7082 841.165 19.5756 840.621 19.4803C838.344 19.082 836.058 19.3601 834.005 20.2882C832.527 20.9566 831.237 21.9202 830.168 23.1595C829.134 24.3549 828.348 25.7568 827.837 27.3205C827.325 28.8736 827.111 30.545 827.207 32.2402C827.307 34.0031 827.733 35.731 828.474 37.3717C829.174 38.9195 830.186 40.4043 831.49 41.7908C832.581 42.9492 833.898 44.0665 835.41 45.113C837.803 46.7683 840.753 48.2897 844.171 49.6384C849.836 51.8746 854.906 52.896 855.119 52.9341L856.426 53.1944C857.004 53.3082 857.566 53.054 857.862 52.5449L858.529 51.3923C858.639 51.2027 861.22 46.7275 863.287 40.9954C864.532 37.5381 865.338 34.3187 865.676 31.4283C865.889 29.6025 865.925 27.8733 865.771 26.2914C865.591 24.3965 865.145 22.6557 864.446 21.1079C863.708 19.4653 862.691 18.0048 861.434 16.7652Z" fill="url(#paint3_linear_1109_4641)"/>
<path d="M1044.19 26.9135C1044.41 25.2307 1044.32 23.5482 1043.93 21.9603C1043.54 20.3689 1042.86 18.9003 1041.92 17.6344C1040.95 16.3194 1039.73 15.2472 1038.32 14.4801C1036.34 13.3989 1034.08 12.9481 1031.78 13.1724C1031.23 13.2261 1030.69 13.3175 1030.15 13.4468C1029.96 12.9228 1029.75 12.4146 1029.5 11.9223C1028.45 9.8644 1026.85 8.20534 1024.87 7.12409C1023.45 6.3455 1021.9 5.89533 1020.27 5.78666C1018.69 5.67974 1017.1 5.89588 1015.54 6.42797C1013.99 6.95385 1012.53 7.78873 1011.23 8.88531C1009.89 10.0259 1008.76 11.4051 1007.9 12.9847C1007.08 14.4749 1006.51 16.1769 1006.18 18.0526C1005.91 19.6206 1005.81 21.3452 1005.89 23.182C1006 26.0896 1006.56 29.361 1007.54 32.9028C1009.17 38.7731 1011.4 43.4379 1011.5 43.6308L1012.08 44.8308C1012.33 45.3609 1012.87 45.657 1013.46 45.5875L1014.78 45.427C1015 45.4007 1020.13 44.7694 1025.95 42.9718C1029.46 41.8864 1032.52 40.5933 1035.03 39.1245C1036.61 38.1957 1038.02 37.1838 1039.19 36.1093C1040.59 34.8258 1041.72 33.4221 1042.53 31.9319C1043.4 30.3544 1043.95 28.6638 1044.19 26.9135Z" fill="url(#paint4_linear_1109_4641)"/>
<path d="M1496.11 8.19696C1494.53 7.57093 1492.88 7.24442 1491.24 7.2357C1489.6 7.22515 1488.01 7.52849 1486.56 8.12921C1485.04 8.75028 1483.7 9.67833 1482.62 10.8595C1481.09 12.5127 1480.1 14.5934 1479.76 16.8787C1479.67 17.4254 1479.63 17.9761 1479.62 18.5309C1479.07 18.5797 1478.52 18.6661 1477.99 18.7901C1475.73 19.3081 1473.74 20.4532 1472.2 22.1063C1471.1 23.2968 1470.29 24.6859 1469.79 26.2435C1469.3 27.747 1469.12 29.3439 1469.26 30.9835C1469.39 32.6132 1469.84 34.2363 1470.59 35.7608C1471.37 37.3462 1472.43 38.7728 1473.75 39.9961C1475 41.15 1476.51 42.1245 1478.25 42.895C1479.7 43.5384 1481.35 44.0555 1483.15 44.4322C1486 45.0268 1489.31 45.2818 1492.98 45.1955C1499.07 45.0534 1504.14 44.0232 1504.35 43.9756L1505.65 43.7076C1506.23 43.5877 1506.65 43.135 1506.73 42.5508L1506.89 41.2293C1506.92 41.0119 1507.56 35.8856 1507.23 29.8007C1507.04 26.1313 1506.53 22.8517 1505.72 20.0573C1505.2 18.2924 1504.56 16.6854 1503.81 15.2876C1502.9 13.6117 1501.82 12.1812 1500.57 11.0273C1499.25 9.80065 1497.75 8.85014 1496.11 8.19696Z" fill="url(#paint5_linear_1109_4641)"/>
<path d="M1600.46 46.4815C1601.77 47.5607 1603.25 48.3777 1604.8 48.8868C1606.36 49.3986 1607.96 49.597 1609.53 49.4711C1611.16 49.343 1612.72 48.8696 1614.12 48.0784C1616.08 46.9734 1617.66 45.2952 1618.69 43.2248C1618.93 42.7296 1619.14 42.2188 1619.32 41.6926C1619.86 41.8154 1620.41 41.9003 1620.96 41.9473C1623.26 42.1439 1625.51 41.666 1627.47 40.561C1628.89 39.7653 1630.09 38.692 1631.04 37.3635C1631.97 36.0819 1632.63 34.6163 1633 33.0137C1633.37 31.4217 1633.44 29.7379 1633.2 28.0578C1632.94 26.3105 1632.37 24.6266 1631.48 23.0575C1630.65 21.5772 1629.51 20.1872 1628.09 18.9206C1626.9 17.8625 1625.49 16.8654 1623.89 15.9558C1621.36 14.5173 1618.29 13.2611 1614.77 12.218C1608.93 10.4885 1603.79 9.9167 1603.57 9.89743L1602.25 9.75296C1601.66 9.69047 1601.13 9.99305 1600.87 10.5262L1600.31 11.7331C1600.22 11.9316 1598.04 16.6162 1596.49 22.5079C1595.55 26.0612 1595.03 29.3391 1594.95 32.248C1594.9 34.0855 1595.01 35.811 1595.3 37.3734C1595.65 39.2451 1596.25 40.94 1597.08 42.4203C1597.96 43.9916 1599.1 45.3572 1600.46 46.4815Z" fill="url(#paint6_linear_1109_4641)"/>
<defs>
<linearGradient id="paint0_linear_1109_4641" x1="17.9856" y1="9.13201" x2="34.2494" y2="45.1032" gradientUnits="userSpaceOnUse">
<stop stop-color="#FF7854"/>
<stop offset="1" stop-color="#FE3675"/>
</linearGradient>
<linearGradient id="paint1_linear_1109_4641" x1="174.041" y1="21.8402" x2="166.361" y2="60.563" gradientUnits="userSpaceOnUse">
<stop stop-color="#FF7854"/>
<stop offset="1" stop-color="#FE3675"/>
</linearGradient>
<linearGradient id="paint2_linear_1109_4641" x1="708.337" y1="10.6433" x2="701.896" y2="49.5914" gradientUnits="userSpaceOnUse">
<stop stop-color="#FF7854"/>
<stop offset="1" stop-color="#FE3675"/>
</linearGradient>
<linearGradient id="paint3_linear_1109_4641" x1="840.986" y1="17.132" x2="857.249" y2="53.1032" gradientUnits="userSpaceOnUse">
<stop stop-color="#FF7854"/>
<stop offset="1" stop-color="#FE3675"/>
</linearGradient>
<linearGradient id="paint4_linear_1109_4641" x1="1031.59" y1="10.801" x2="1012.64" y2="45.434" gradientUnits="userSpaceOnUse">
<stop stop-color="#FF7854"/>
<stop offset="1" stop-color="#FE3675"/>
</linearGradient>
<linearGradient id="paint5_linear_1109_4641" x1="1477.41" y1="16.4846" x2="1506.38" y2="43.3033" gradientUnits="userSpaceOnUse">
<stop stop-color="#FF7854"/>
<stop offset="1" stop-color="#FE3675"/>
</linearGradient>
<linearGradient id="paint6_linear_1109_4641" x1="1620.8" y1="44.3186" x2="1601.44" y2="9.91623" gradientUnits="userSpaceOnUse">
<stop stop-color="#FF7854"/>
<stop offset="1" stop-color="#FE3675"/>
</linearGradient>
</defs>
</svg>
