<svg width="17" height="19" viewBox="0 0 17 19" fill="none" xmlns="http://www.w3.org/2000/svg">
<path d="M11.214 4.64251C11.7403 4.64251 12.245 4.43345 12.6171 4.06131C12.9893 3.68918 13.1983 3.18445 13.1983 2.65817C13.1983 2.13189 12.9893 1.62716 12.6171 1.25503C12.245 0.882892 11.7403 0.673828 11.214 0.673828C10.6877 0.673828 10.183 0.882892 9.81087 1.25503C9.43873 1.62716 9.22967 2.13189 9.22967 2.65817C9.22967 3.18445 9.43873 3.68918 9.81087 4.06131C10.183 4.43345 10.6877 4.64251 11.214 4.64251ZM7.22768 6.53072C6.6778 6.66742 6.30254 6.87291 5.9996 7.12779C5.5454 7.51055 5.17852 8.06264 4.68288 8.93045C4.5668 9.13354 4.37481 9.2822 4.14913 9.34372C3.92345 9.40525 3.68257 9.37461 3.47948 9.25853C3.2764 9.14246 3.12774 8.95046 3.06621 8.72478C3.00469 8.4991 3.03533 8.25822 3.15141 8.05514C3.64485 7.19217 4.14358 6.38476 4.86367 5.77888C5.61508 5.14565 6.53493 4.78759 7.77536 4.64957C8.29394 4.59224 8.86455 4.60371 9.39944 4.84227C9.96079 5.09318 10.3709 5.54252 10.6505 6.14312C11.027 6.9514 11.3071 7.4325 11.5311 7.71119C11.6391 7.84524 11.7145 7.90741 11.7573 7.9352C11.7912 7.95724 11.8058 7.95901 11.8111 7.95989C11.8494 7.9643 11.9742 7.95989 12.3393 7.79806C12.4985 7.7275 12.6723 7.64284 12.8848 7.53921L12.9355 7.51452C13.1955 7.38624 13.4577 7.26275 13.7222 7.14411C13.9357 7.05037 14.1777 7.04501 14.3951 7.1292C14.6126 7.21339 14.7879 7.38028 14.8826 7.59336C14.9773 7.80643 14.9838 8.04836 14.9007 8.26621C14.8175 8.48406 14.6514 8.6601 14.4388 8.75583C14.1937 8.86583 13.9507 8.98035 13.7099 9.09934L13.6521 9.12757C13.4488 9.22678 13.2442 9.32688 13.0524 9.41155C12.6555 9.58705 12.1484 9.77755 11.5985 9.71096C11.0182 9.64041 10.5711 9.31277 10.2029 8.87313L8.99772 11.1983L10.6646 13.367C10.7638 13.4966 10.8251 13.651 10.8423 13.8133L11.2092 17.3392C11.2231 17.4554 11.2139 17.5732 11.1819 17.6857C11.1499 17.7983 11.0958 17.9033 11.0228 17.9948C10.9498 18.0862 10.8593 18.1622 10.7567 18.2184C10.654 18.2745 10.5412 18.3097 10.4248 18.3218C10.3085 18.3339 10.1908 18.3227 10.0788 18.2889C9.96679 18.2551 9.86261 18.1994 9.77235 18.1249C9.68209 18.0505 9.60754 17.9588 9.55306 17.8552C9.49858 17.7517 9.46524 17.6383 9.455 17.5218L9.11369 14.2441L8.10124 12.9265L8.09242 12.9428L8.05538 12.8669L6.1848 10.4328C6.09285 10.3132 6.03313 10.1719 6.01136 10.0226C5.98959 9.87332 6.00649 9.72091 6.06045 9.58L7.22768 6.53072Z" fill="#939393"/>
<path d="M5.89478 11.7009L5.24568 13.4471L2.68809 13.2443C2.57181 13.2335 2.45454 13.2459 2.34309 13.2808C2.23164 13.3157 2.12823 13.3724 2.03885 13.4475C1.94948 13.5227 1.87593 13.6149 1.82246 13.7187C1.769 13.8225 1.73669 13.9359 1.7274 14.0523C1.71812 14.1687 1.73204 14.2858 1.76838 14.3968C1.80471 14.5078 1.86272 14.6105 1.93905 14.6989C2.01537 14.7873 2.1085 14.8596 2.21301 14.9117C2.31752 14.9638 2.43134 14.9947 2.54786 15.0024L5.77043 15.2582C5.96168 15.2734 6.15268 15.2258 6.31447 15.1227C6.47625 15.0196 6.59998 14.8665 6.66691 14.6867L7.163 13.3515L5.89478 11.7009Z" fill="#939393"/>
</svg>
