<svg width="17" height="17" viewBox="0 0 17 17" fill="none" xmlns="http://www.w3.org/2000/svg">
<path d="M8.34193 4.25098C5.33761 4.25098 2.77192 6.01288 1.73242 8.49994C2.77192 10.987 5.33761 12.7489 8.34193 12.7489C11.3462 12.7489 13.9119 10.987 14.9514 8.49994C13.9119 6.01288 11.3462 4.25098 8.34193 4.25098ZM8.34193 11.3326C6.68354 11.3326 5.33761 10.0636 5.33761 8.49994C5.33761 6.93632 6.68354 5.6673 8.34193 5.6673C10.0003 5.6673 11.3462 6.93632 11.3462 8.49994C11.3462 10.0636 10.0003 11.3326 8.34193 11.3326ZM8.34193 6.80036C7.34449 6.80036 6.53933 7.55951 6.53933 8.49994C6.53933 9.44038 7.34449 10.1995 8.34193 10.1995C9.33936 10.1995 10.1445 9.44038 10.1445 8.49994C10.1445 7.55951 9.33936 6.80036 8.34193 6.80036Z" fill="#939393"/>
</svg>
