<svg width="17" height="17" viewBox="0 0 17 17" fill="none" xmlns="http://www.w3.org/2000/svg">
<path d="M6.35907 8.33489C6.13996 8.33489 5.92981 8.42194 5.77487 8.57688C5.61993 8.73182 5.53289 8.94196 5.53289 9.16108C5.53289 9.3802 5.61993 9.59034 5.77487 9.74528C5.92981 9.90022 6.13996 9.98727 6.35907 9.98727C6.46757 9.98727 6.57501 9.9659 6.67524 9.92438C6.77548 9.88286 6.86656 9.822 6.94328 9.74528C7.02 9.66856 7.08085 9.57749 7.12237 9.47725C7.16389 9.37701 7.18526 9.26958 7.18526 9.16108C7.18526 9.05258 7.16389 8.94515 7.12237 8.84491C7.08085 8.74467 7.02 8.65359 6.94328 8.57688C6.86656 8.50016 6.77548 8.4393 6.67524 8.39778C6.57501 8.35626 6.46757 8.33489 6.35907 8.33489ZM10.3248 8.33489C10.1057 8.33489 9.89551 8.42194 9.74057 8.57688C9.58563 8.73182 9.49859 8.94196 9.49859 9.16108C9.49859 9.3802 9.58563 9.59034 9.74057 9.74528C9.89551 9.90022 10.1057 9.98727 10.3248 9.98727C10.5439 9.98727 10.754 9.90022 10.909 9.74528C11.0639 9.59034 11.151 9.3802 11.151 9.16108C11.151 8.94196 11.0639 8.73182 10.909 8.57688C10.754 8.42194 10.5439 8.33489 10.3248 8.33489ZM8.34193 1.89062C7.47395 1.89062 6.61448 2.06158 5.81258 2.39374C5.01068 2.7259 4.28205 3.21275 3.6683 3.8265C2.42878 5.06603 1.73242 6.74718 1.73242 8.50013C1.73242 10.2531 2.42878 11.9342 3.6683 13.1738C4.28205 13.7875 5.01068 14.2744 5.81258 14.6065C6.61448 14.9387 7.47395 15.1096 8.34193 15.1096C10.0949 15.1096 11.776 14.4133 13.0156 13.1738C14.2551 11.9342 14.9514 10.2531 14.9514 8.50013C14.9514 7.63216 14.7805 6.77268 14.4483 5.97078C14.1162 5.16888 13.6293 4.44025 13.0156 3.8265C12.4018 3.21275 11.6732 2.7259 10.8713 2.39374C10.0694 2.06158 9.2099 1.89063 8.34193 1.89062ZM8.34193 13.7877C5.42713 13.7877 3.05432 11.4149 3.05432 8.50013C3.05432 8.30845 3.05432 8.11678 3.08737 7.93171C4.64721 7.23771 5.88319 5.96208 6.53092 4.38241C7.28656 5.45472 8.34493 6.27721 9.57064 6.74465C10.7963 7.21209 12.1336 7.30322 13.4114 7.00638C13.5502 7.47566 13.6295 7.97798 13.6295 8.50013C13.6295 11.4149 11.2567 13.7877 8.34193 13.7877Z" fill="#939393"/>
</svg>
