<svg width="17" height="17" viewBox="0 0 17 17" fill="none" xmlns="http://www.w3.org/2000/svg">
<path d="M4.37622 0.946289C5.72079 0.946289 6.39307 2.57789 5.44885 3.52966C4.49708 4.47388 2.86548 3.80159 2.86548 2.45703C2.86548 2.05636 3.02465 1.67209 3.30797 1.38878C3.59129 1.10546 3.97555 0.946289 4.37622 0.946289ZM3.24317 4.72315H5.50928C5.90996 4.72315 6.29422 4.88232 6.57754 5.16563C6.86086 5.44895 7.02002 5.83322 7.02002 6.23389V10.3884H5.88697V16.0537H2.86548V10.3884H1.73242V6.23389C1.73242 5.83322 1.89159 5.44895 2.17491 5.16563C2.45823 4.88232 2.84249 4.72315 3.24317 4.72315ZM14.9514 5.47852H10.4192V6.98926H14.9514M14.9514 7.74464H12.6853V9.25538H14.9514M14.9514 0.946289H10.4192V2.45703H14.9514M14.9514 3.2124H12.6853V4.72315H14.9514M14.9514 10.0108H10.4192V11.5215H14.9514M14.9514 14.543H10.4192V16.0537H14.9514M14.9514 12.2769H12.6853V13.7876H14.9514" fill="#939393"/>
</svg>
