<svg width="17" height="17" viewBox="0 0 17 17" fill="none" xmlns="http://www.w3.org/2000/svg">
<path d="M8.34211 3.72004C7.76819 3.72004 7.27818 3.5384 6.87207 3.17511C6.46597 2.81183 6.26332 2.37383 6.26411 1.86112C6.26411 1.34771 6.46716 0.909354 6.87326 0.546067C7.27936 0.18278 7.76898 0.00149117 8.34211 0.00219933C8.91604 0.00219933 9.40605 0.183843 9.81215 0.547129C10.2183 0.910416 10.4209 1.34841 10.4201 1.86112C10.4201 2.37454 10.2171 2.81289 9.81097 3.17618C9.40486 3.53946 8.91525 3.72075 8.34211 3.72004ZM7.15468 16.9981C6.81824 16.9981 6.53603 16.8961 6.30804 16.6921C6.08006 16.4882 5.96646 16.2361 5.96725 15.9358V12.7491H5.31417C4.89856 12.7491 4.56688 12.5986 4.3191 12.2976C4.07132 11.9967 4.02699 11.6691 4.18611 11.3151L6.41254 5.97731C6.57086 5.62323 6.82299 5.33536 7.16893 5.1137C7.51487 4.89205 7.90593 4.78158 8.34211 4.78229C8.7775 4.78229 9.16856 4.89311 9.51529 5.11477C9.86202 5.33642 10.1142 5.62393 10.2717 5.97731L12.4981 11.3151C12.6564 11.6691 12.6117 11.9967 12.3639 12.2976C12.1162 12.5986 11.7849 12.7491 11.3701 12.7491H10.717V15.9358C10.717 16.2368 10.603 16.4892 10.375 16.6932C10.147 16.8971 9.86519 16.9988 9.52954 16.9981H7.15468Z" fill="#939393"/>
</svg>
