<svg width="17" height="17" viewBox="0 0 17 17" fill="none" xmlns="http://www.w3.org/2000/svg">
<path d="M8.75146 1.66797L9.0542 1.69531C10.5576 1.86814 11.9548 2.58327 12.9927 3.71582L13.1948 3.94629C14.1747 5.12286 14.7152 6.62029 14.7153 8.1709V8.63477L14.6978 8.62207C14.6122 9.87664 14.1757 11.0816 13.4341 12.0889L13.2622 12.3105C12.3477 13.4468 11.0838 14.2305 9.67725 14.5391C9.53189 14.8078 9.31332 15.0281 9.04541 15.1699L8.91162 15.2324C8.54542 15.3828 8.13621 15.3828 7.77002 15.2324V15.2314C7.44202 15.0966 7.1731 14.8512 7.00439 14.5391C5.55946 14.2218 4.26934 13.4041 3.35303 12.2256L3.17041 11.9785C2.22443 10.6356 1.81361 8.97531 2.021 7.33496L2.06689 7.0293C2.33141 5.50916 3.11698 4.12988 4.28857 3.14258L4.52686 2.95117C5.73796 2.02583 7.23513 1.56822 8.75146 1.66797ZM8.34131 2.78711C7.13644 2.78712 5.97045 3.2115 5.03662 3.98535L4.85303 4.14453C3.95085 4.96474 3.35292 6.0765 3.15674 7.29199L3.12256 7.53613C2.97091 8.84643 3.29417 10.1685 4.03076 11.25L4.17334 11.4492C4.85619 12.36 5.80573 13.0222 6.88135 13.3408C6.99905 12.9476 7.26445 12.6118 7.62939 12.416C8.07456 12.1773 8.60705 12.1774 9.05225 12.416L9.2124 12.5146C9.49586 12.7151 9.69954 13.0082 9.79932 13.3418C10.9527 13.0007 11.9614 12.264 12.6519 11.25L12.7847 11.0439C13.3837 10.0723 13.6635 8.92908 13.5825 7.78223L13.5601 7.53613C13.4178 6.30786 12.8673 5.17075 12.0063 4.3125L11.8306 4.14453C10.8684 3.26968 9.62652 2.78711 8.34131 2.78711Z" fill="#939393" stroke="#939393" stroke-width="0.472107"/>
</svg>
