<svg width="19" height="17" viewBox="0 0 19 17" fill="none" xmlns="http://www.w3.org/2000/svg">
<path d="M15.0913 2.75004C15.0913 2.62804 15.1398 2.51104 15.226 2.42477C15.3123 2.3385 15.4293 2.29004 15.5513 2.29004C16.1613 2.29004 16.7463 2.53236 17.1777 2.9637C17.609 3.39503 17.8513 3.98005 17.8513 4.59005V5.32145C17.8517 5.62473 17.784 5.92423 17.6531 6.19781C17.5222 6.47139 17.3315 6.71206 17.0951 6.90202C17.4698 7.15455 17.7766 7.49529 17.9887 7.89427C18.2008 8.29325 18.3116 8.73823 18.3113 9.19007V10.5701C18.3113 10.6921 18.2629 10.8091 18.1766 10.8953C18.0903 10.9816 17.9733 11.0301 17.8513 11.0301C17.7293 11.0301 17.6123 10.9816 17.5261 10.8953C17.4398 10.8091 17.3913 10.6921 17.3913 10.5701V9.19007C17.3913 8.70207 17.1975 8.23406 16.8524 7.88899C16.5073 7.54392 16.0393 7.35006 15.5513 7.35006C15.4293 7.35006 15.3123 7.3016 15.226 7.21533C15.1398 7.12906 15.0913 7.01206 15.0913 6.89006C15.0913 6.76806 15.1398 6.65106 15.226 6.56479C15.3123 6.47852 15.4293 6.43006 15.5513 6.43006H15.8227C16.1167 6.43006 16.3987 6.31326 16.6066 6.10536C16.8145 5.89745 16.9313 5.61547 16.9313 5.32145V4.59005C16.9313 4.22405 16.7859 3.87304 16.5271 3.61424C16.2683 3.35544 15.9173 3.21004 15.5513 3.21004C15.4293 3.21004 15.3123 3.16158 15.226 3.07531C15.1398 2.98904 15.0913 2.87204 15.0913 2.75004Z" fill="#939393"/>
<path d="M13.7121 5.50985C13.3461 5.50985 12.9951 5.65524 12.7363 5.91404C12.4775 6.17284 12.3321 6.52385 12.3321 6.88985V7.72614C12.3321 8.09214 12.4775 8.44315 12.7363 8.70195C12.9951 8.96075 13.3461 9.10615 13.7121 9.10615H15.0921C15.4581 9.10615 15.8091 9.25154 16.068 9.51034C16.3268 9.76914 16.4721 10.1202 16.4721 10.4862V10.5699C16.4721 10.6919 16.4237 10.8089 16.3374 10.8951C16.2511 10.9814 16.1341 11.0299 16.0121 11.0299C15.8901 11.0299 15.7731 10.9814 15.6869 10.8951C15.6006 10.8089 15.5521 10.6919 15.5521 10.5699V10.4862C15.5521 10.3642 15.5037 10.2471 15.4174 10.1609C15.3311 10.0746 15.2141 10.0261 15.0921 10.0261H13.7121C13.1021 10.0261 12.5171 9.78383 12.0858 9.35249C11.6544 8.92116 11.4121 8.33614 11.4121 7.72614V6.88985C11.4121 6.27985 11.6544 5.69484 12.0858 5.2635C12.5171 4.83217 13.1021 4.58984 13.7121 4.58984C13.8341 4.58984 13.9511 4.63831 14.0374 4.72458C14.1237 4.81084 14.1721 4.92785 14.1721 5.04985C14.1721 5.17185 14.1237 5.28885 14.0374 5.37512C13.9511 5.46138 13.8341 5.50985 13.7121 5.50985ZM1.29207 11.9499C1.04807 11.9499 0.814068 12.0468 0.641533 12.2193C0.468999 12.3919 0.37207 12.6259 0.37207 12.8699V13.7899C0.37207 14.0339 0.468999 14.2679 0.641533 14.4404C0.814068 14.613 1.04807 14.7099 1.29207 14.7099H13.7121C13.9561 14.7099 14.1901 14.613 14.3627 14.4404C14.5352 14.2679 14.6321 14.0339 14.6321 13.7899V12.8699C14.6321 12.6259 14.5352 12.3919 14.3627 12.2193C14.1901 12.0468 13.9561 11.9499 13.7121 11.9499H1.29207ZM16.4721 12.4099C16.4721 12.2879 16.4237 12.1709 16.3374 12.0846C16.2511 11.9983 16.1341 11.9499 16.0121 11.9499C15.8901 11.9499 15.7731 11.9983 15.6869 12.0846C15.6006 12.1709 15.5521 12.2879 15.5521 12.4099V14.2499C15.5521 14.3719 15.6006 14.4889 15.6869 14.5752C15.7731 14.6614 15.8901 14.7099 16.0121 14.7099C16.1341 14.7099 16.2511 14.6614 16.3374 14.5752C16.4237 14.4889 16.4721 14.3719 16.4721 14.2499V12.4099ZM18.3122 12.4099C18.3122 12.2879 18.2637 12.1709 18.1774 12.0846C18.0912 11.9983 17.9742 11.9499 17.8522 11.9499C17.7302 11.9499 17.6131 11.9983 17.5269 12.0846C17.4406 12.1709 17.3922 12.2879 17.3922 12.4099V14.2499C17.3922 14.3719 17.4406 14.4889 17.5269 14.5752C17.6131 14.6614 17.7302 14.7099 17.8522 14.7099C17.9742 14.7099 18.0912 14.6614 18.1774 14.5752C18.2637 14.4889 18.3122 14.3719 18.3122 14.2499V12.4099Z" fill="#939393"/>
</svg>
