<svg width="17" height="17" viewBox="0 0 17 17" fill="none" xmlns="http://www.w3.org/2000/svg">
<path d="M9.72611 4.18277L12.6571 7.11476C12.8288 7.28649 12.9464 7.50484 12.9953 7.74276C13.0441 7.98069 13.0221 8.22772 12.9319 8.45324L11.4646 12.1224C11.3823 12.3279 11.2466 12.5075 11.0715 12.6428C10.8964 12.7781 10.6883 12.8641 10.4688 12.8919L7.31754 13.2859C7.23689 13.2952 7.15126 13.307 7.06316 13.3207L6.78768 13.3653L6.64374 13.3914L6.19516 13.4783L5.88804 13.5434L5.42581 13.6477L4.83328 13.7892L3.87035 14.0349L3.46955 14.1429C3.3684 14.1707 3.26189 14.1727 3.15978 14.1486C3.05767 14.1246 2.96323 14.0753 2.88512 14.0052C2.80701 13.9352 2.74772 13.8467 2.71271 13.7478C2.67769 13.6489 2.66805 13.5428 2.68469 13.4392L2.70578 13.3486L2.88881 12.6586L3.05261 12.0082L3.19407 11.4156L3.29768 10.9534L3.36283 10.6456L3.45031 10.1975L3.49995 9.91397L3.53966 9.64838L3.94915 6.37199C3.97696 6.15237 4.06302 5.94419 4.19842 5.76906C4.33381 5.59393 4.5136 5.45823 4.71912 5.37604L8.38781 3.90849C8.6133 3.81831 8.8603 3.79629 9.09819 3.84515C9.33608 3.89401 9.55441 4.011 9.72611 4.18277ZM7.42426 7.66083C7.26751 7.8177 7.15565 8.01372 7.10033 8.22849C7.04501 8.44326 7.04824 8.66893 7.10969 8.88203C7.06448 8.90855 7.02279 8.94065 6.98561 8.97759L4.46784 11.4957C4.45134 11.5124 4.43994 11.5335 4.43496 11.5565L4.37974 11.7954L4.2693 12.2565L4.21594 12.4743C4.21067 12.4952 4.21092 12.5171 4.21666 12.5379C4.2224 12.5587 4.23344 12.5777 4.24869 12.5929C4.26395 12.6082 4.2829 12.6192 4.30369 12.625C4.32448 12.6307 4.34641 12.6309 4.36733 12.6257L4.81219 12.5171L5.28559 12.4066C5.30841 12.4014 5.32927 12.3897 5.34577 12.3731L7.86353 9.85502C7.90047 9.81806 7.93258 9.77656 7.95908 9.73153C8.16932 9.79198 8.3918 9.79577 8.60397 9.74251C8.81614 9.68926 9.01047 9.58086 9.16725 9.42829C9.32404 9.27573 9.43772 9.08442 9.49676 8.87376C9.5558 8.6631 9.55812 8.44057 9.50346 8.22872C9.44881 8.01688 9.33914 7.82325 9.18556 7.66746C9.03198 7.51167 8.83995 7.39925 8.62893 7.34159C8.41791 7.28394 8.1954 7.2831 7.98395 7.33916C7.7725 7.39523 7.57963 7.5062 7.42488 7.66083H7.42426ZM10.3143 3.0168C10.421 2.90986 10.5632 2.84557 10.7139 2.83597C10.8647 2.82637 11.0138 2.87214 11.1333 2.96467L11.1916 3.0168L13.8235 5.64908C13.936 5.76049 14.0016 5.91067 14.007 6.06889C14.0123 6.22711 13.957 6.3814 13.8524 6.50018C13.7477 6.61896 13.6017 6.69324 13.444 6.70782C13.2864 6.72241 13.1292 6.67619 13.0045 6.57863L12.9462 6.5265L10.3143 3.89422C10.198 3.77786 10.1326 3.62005 10.1326 3.45551C10.1326 3.29097 10.198 3.13316 10.3143 3.0168Z" fill="#939393"/>
</svg>
