<svg width="14" height="12" viewBox="0 0 14 12" fill="none" xmlns="http://www.w3.org/2000/svg">
<path d="M13.7219 5.59688C12.2407 2.47656 10.0016 0.90625 7.00006 0.90625C3.99693 0.90625 1.75943 2.47656 0.278185 5.59844C0.218771 5.72425 0.187958 5.86165 0.187958 6.00078C0.187958 6.13991 0.218771 6.27732 0.278185 6.40312C1.75943 9.52344 3.9985 11.0938 7.00006 11.0938C10.0032 11.0938 12.2407 9.52344 13.7219 6.40156C13.8422 6.14844 13.8422 5.85469 13.7219 5.59688V5.59688ZM7.00006 9.96875C4.47975 9.96875 2.63443 8.69062 1.33287 6C2.63443 3.30938 4.47975 2.03125 7.00006 2.03125C9.52037 2.03125 11.3657 3.30938 12.6672 6C11.3672 8.69062 9.52193 9.96875 7.00006 9.96875ZM6.93756 3.25C5.41881 3.25 4.18756 4.48125 4.18756 6C4.18756 7.51875 5.41881 8.75 6.93756 8.75C8.45631 8.75 9.68756 7.51875 9.68756 6C9.68756 4.48125 8.45631 3.25 6.93756 3.25ZM6.93756 7.75C5.97037 7.75 5.18756 6.96719 5.18756 6C5.18756 5.03281 5.97037 4.25 6.93756 4.25C7.90475 4.25 8.68756 5.03281 8.68756 6C8.68756 6.96719 7.90475 7.75 6.93756 7.75Z" fill="black" fill-opacity="0.25"/>
</svg>
