<svg width="20" height="22" viewBox="0 0 20 22" fill="none" xmlns="http://www.w3.org/2000/svg">
<path d="M19.3536 7.04257L13.358 6.1301L10.6778 0.440169C10.6046 0.284382 10.4842 0.158269 10.3354 0.0816119C9.96233 -0.111267 9.50894 0.0494654 9.32238 0.440169L6.64219 6.1301L0.646577 7.04257C0.481279 7.0673 0.330149 7.1489 0.21444 7.27254C0.0745542 7.4231 -0.00252921 7.62566 0.000127499 7.8357C0.00278421 8.04575 0.0849636 8.2461 0.228608 8.39272L4.56651 12.8215L3.54166 19.0753C3.51763 19.2207 3.533 19.3704 3.58604 19.5071C3.63907 19.6439 3.72765 19.7624 3.84172 19.8492C3.95579 19.9359 4.0908 19.9875 4.23143 19.998C4.37206 20.0085 4.51268 19.9775 4.63735 19.9086L10.0001 16.9561L15.3629 19.9086C15.5093 19.9902 15.6793 20.0174 15.8422 19.9877C16.2531 19.9135 16.5294 19.5055 16.4586 19.0753L15.4337 12.8215L19.7716 8.39272C19.8897 8.27156 19.9676 8.1133 19.9912 7.9402C20.055 7.50746 19.7669 7.10686 19.3536 7.04257V7.04257ZM13.6083 12.1984L14.4608 17.3987L10.0001 14.9457L5.53941 17.4012L6.39188 12.2008L2.78365 8.51636L7.77094 7.75721L10.0001 3.02673L12.2293 7.75721L17.2166 8.51636L13.6083 12.1984Z" fill="#FFCC00"/>
<path d="M10.0001 0L12.2452 7.60081H19.5106L13.6328 12.2984L15.8779 19.8992L10.0001 15.2016L4.12221 19.8992L6.36735 12.2984L0.489496 7.60081H7.75492L10.0001 0Z" fill="#FFCC00"/>
</svg>
