<?xml version='1.0' encoding='utf-8'?>
<svg xmlns="http://www.w3.org/2000/svg" width="22" height="20" viewBox="0 0 22 20" fill="none">
<path d="M21.2667 18.5714H20.7167C20.6681 18.5714 20.6215 18.5526 20.5871 18.5191C20.5527 18.4856 20.5334 18.4402 20.5334 18.3929V10.7817C20.5338 10.7533 20.5273 10.7252 20.5143 10.6997C20.5013 10.6743 20.4823 10.6522 20.4588 10.6354C20.4353 10.6185 20.4081 10.6074 20.3793 10.6028C20.3505 10.5983 20.321 10.6006 20.2932 10.6094C19.8726 10.7381 19.4359 10.8099 18.9952 10.8228C18.9411 10.8228 18.8898 10.825 18.8394 10.825C17.9918 10.8269 17.1578 10.6173 16.4171 10.2161C16.361 10.1857 16.2979 10.1698 16.2337 10.1698C16.1696 10.1698 16.1065 10.1857 16.0504 10.2161C15.3098 10.6173 14.476 10.8269 13.6285 10.825C12.7858 10.8262 11.9573 10.614 11.2241 10.2094C11.1675 10.1782 11.1037 10.1618 11.0387 10.1618C10.9737 10.1618 10.9098 10.1782 10.8533 10.2094C10.1091 10.6155 9.26983 10.8277 8.41676 10.8254C7.5684 10.826 6.73462 10.6105 5.99811 10.2004C5.94112 10.1689 5.87667 10.1523 5.8111 10.1523C5.74553 10.1523 5.68109 10.1689 5.6241 10.2004C4.88759 10.6105 4.05381 10.826 3.20545 10.8254C3.15549 10.8254 3.10507 10.8254 3.05099 10.8232H3.04824C2.59209 10.8099 2.14022 10.7334 1.70622 10.596C1.67874 10.5873 1.64954 10.5851 1.62102 10.5896C1.59249 10.594 1.56545 10.6049 1.54208 10.6214C1.51871 10.638 1.49969 10.6597 1.48656 10.6847C1.47342 10.7098 1.46655 10.7375 1.46651 10.7656V18.3929C1.46651 18.4402 1.44719 18.4856 1.41281 18.5191C1.37843 18.5526 1.3318 18.5714 1.28317 18.5714H0.756085C0.36008 18.5714 0.0181598 18.8679 0.000742923 19.2536C-0.00371512 19.35 0.0119253 19.4462 0.0467203 19.5366C0.0815152 19.6269 0.134743 19.7095 0.203192 19.7792C0.27164 19.849 0.35389 19.9045 0.444978 19.9425C0.536065 19.9804 0.6341 20 0.733168 20H21.2438C21.6398 20 21.9818 19.7036 21.9992 19.3179C22.0036 19.2215 21.988 19.1252 21.9532 19.0348C21.9184 18.9445 21.8652 18.862 21.7967 18.7922C21.7283 18.7224 21.646 18.6669 21.5549 18.629C21.4638 18.591 21.3658 18.5715 21.2667 18.5714ZM9.53327 15.5357C9.53327 15.5831 9.51396 15.6285 9.47957 15.662C9.44519 15.6955 9.39856 15.7143 9.34994 15.7143H5.31656C5.26793 15.7143 5.2213 15.6955 5.18692 15.662C5.15254 15.6285 5.13322 15.5831 5.13322 15.5357V12.6786C5.13322 12.5365 5.19117 12.4002 5.29431 12.2998C5.39746 12.1993 5.53736 12.1429 5.68323 12.1429H8.98326C9.12914 12.1429 9.26903 12.1993 9.37218 12.2998C9.47532 12.4002 9.53327 12.5365 9.53327 12.6786V15.5357ZM16.6834 18.5714H13.3833C13.3347 18.5714 13.2881 18.5526 13.2537 18.5191C13.2193 18.4856 13.2 18.4402 13.2 18.3929V12.6786C13.2 12.5365 13.2579 12.4002 13.3611 12.2998C13.4642 12.1993 13.6041 12.1429 13.75 12.1429H16.3167C16.4626 12.1429 16.6025 12.1993 16.7056 12.2998C16.8087 12.4002 16.8667 12.5365 16.8667 12.6786V18.3929C16.8667 18.4402 16.8474 18.4856 16.813 18.5191C16.7786 18.5526 16.732 18.5714 16.6834 18.5714ZM21.8429 6.17321L19.8757 1.77634C19.3605 0.697322 18.184 0 16.8781 0H5.11947C3.81366 0 2.63711 0.697322 2.12193 1.77634L0.154745 6.17321C-0.25776 7.03973 0.287663 7.92991 0.287663 7.92991L0.300496 7.95C0.322955 7.98482 0.362831 8.03929 0.387122 8.07411C0.389414 8.07679 0.391247 8.07991 0.393539 8.08304L0.622708 8.35313C0.631277 8.36332 0.64046 8.37301 0.650209 8.38214L0.879378 8.59777L0.898628 8.61384C1.03321 8.7262 1.17717 8.82744 1.32901 8.91652V8.91875C1.82782 9.21306 2.39612 9.37712 2.97903 9.39509H3.09224C3.97421 9.39669 4.82404 9.07271 5.47056 8.48839L5.48568 8.47455C5.5532 8.41259 5.64247 8.37808 5.73525 8.37808C5.82802 8.37808 5.91729 8.41259 5.98481 8.47455L5.99994 8.48839C6.65335 9.07171 7.5075 9.3953 8.39384 9.3953C9.28018 9.3953 10.1343 9.07171 10.7877 8.48839C10.8555 8.42727 10.9445 8.39332 11.0369 8.39332C11.1292 8.39332 11.2182 8.42727 11.286 8.48839C11.9374 9.06987 12.7885 9.39328 13.6721 9.39518C14.5557 9.39708 15.4082 9.07733 16.0623 8.49866C16.1291 8.43842 16.2167 8.40495 16.3077 8.40495C16.3988 8.40495 16.4864 8.43842 16.5532 8.49866C17.208 9.08086 18.0642 9.40099 18.9508 9.39509H19.0649C19.6332 9.37442 20.1861 9.20978 20.6691 8.91741C20.7126 8.89196 20.7543 8.86518 20.7965 8.83839C21.1222 8.62449 21.4058 8.35516 21.6334 8.0433L21.7132 7.92589C21.7211 7.91399 21.7284 7.90149 21.7352 7.88839C21.8112 7.7375 22.2192 6.96161 21.8429 6.17321Z" fill="url(#paint0_linear)" />
<defs><linearGradient id="paint0_linear" x1="0" y1="0" x2="0" y2="1"><stop offset="0%" stop-color="#FF7854" /><stop offset="100%" stop-color="#FE3675" /></linearGradient></defs></svg>