<svg width="19" height="18" viewBox="0 0 19 18" fill="none" xmlns="http://www.w3.org/2000/svg">
<path d="M18.3125 15.5625H2.1875V0.9375C2.1875 0.834375 2.10313 0.75 2 0.75H0.6875C0.584375 0.75 0.5 0.834375 0.5 0.9375V17.0625C0.5 17.1656 0.584375 17.25 0.6875 17.25H18.3125C18.4156 17.25 18.5 17.1656 18.5 17.0625V15.75C18.5 15.6469 18.4156 15.5625 18.3125 15.5625ZM3.875 14.0625H16.4375C16.5406 14.0625 16.625 13.9781 16.625 13.875V3.65625C16.625 3.4875 16.4211 3.40547 16.3039 3.52266L11.375 8.45156L8.43594 5.54531C8.4007 5.51042 8.35311 5.49084 8.30352 5.49084C8.25392 5.49084 8.20633 5.51042 8.17109 5.54531L3.74141 9.98906C3.7242 10.0063 3.71058 10.0268 3.70133 10.0493C3.69208 10.0718 3.68738 10.096 3.6875 10.1203V13.875C3.6875 13.9781 3.77187 14.0625 3.875 14.0625Z" fill="#7E8492"/>
</svg>
