<svg width="22" height="17" viewBox="0 0 22 17" fill="none" xmlns="http://www.w3.org/2000/svg">
<path d="M20.7308 0.196148L1.94266 0.130196C1.75347 0.129539 1.56798 0.182562 1.40772 0.283108C1.24746 0.383654 1.11902 0.527598 1.03729 0.698225C0.955571 0.868852 0.923927 1.05916 0.946036 1.24705C0.968145 1.43494 1.0431 1.61271 1.1622 1.75971L4.30992 5.64218L12.5705 4.99996L6.76871 10.9151L7.71954 15.822C7.75487 16.0082 7.84249 16.1805 7.97215 16.3187C8.10182 16.457 8.26816 16.5554 8.45173 16.6026C8.6353 16.6497 8.8285 16.6436 9.00874 16.585C9.18897 16.5264 9.34879 16.4177 9.46949 16.2715L21.4958 1.83656C21.6174 1.69077 21.6949 1.51338 21.7194 1.32514C21.7439 1.1369 21.7143 0.945569 21.6341 0.773524C21.5538 0.601479 21.4263 0.455824 21.2664 0.353581C21.1064 0.251339 20.9207 0.196733 20.7308 0.196148Z" fill="white"/>
</svg>
